<?xml version="1.0" standalone="no"?>
<!DOCTYPE svg PUBLIC "-//W3C//DTD SVG 1.1//EN" "http://www.w3.org/Graphics/SVG/1.1/DTD/svg11.dtd" >
<svg xmlns="http://www.w3.org/2000/svg" xmlns:xlink="http://www.w3.org/1999/xlink" version="1.1">
<metadata>
Created by FontForge 20190801 at Fri Jan  1 00:00:00 1904
 By root
Eurotype
</metadata>
<defs>
<font id="AvantiBoldItalic" horiz-adv-x="2179" >
  <font-face 
    font-family="Avanti"
    font-weight="700"
    font-style="italic"
    font-stretch="normal"
    units-per-em="4096"
    panose-1="2 11 -30 0 0 0 0 0 0 0"
    ascent="3276"
    descent="-820"
    x-height="2126"
    cap-height="2875"
    bbox="-127 -1012 4731 3604"
    underline-thickness="85"
    underline-position="-130"
    unicode-range="U+0020-2022"
  />
<missing-glyph horiz-adv-x="3072" 
d="M512 0v2560h2048v-2560h-2048zM2494 66v2428h-1916v-2428h1916z" />
    <glyph glyph-name=".notdef" horiz-adv-x="3072" 
d="M512 0v2560h2048v-2560h-2048zM2494 66v2428h-1916v-2428h1916z" />
    <glyph glyph-name=".null" horiz-adv-x="0" 
 />
    <glyph glyph-name="nonmarkingreturn" horiz-adv-x="0" 
 />
    <glyph glyph-name="c32" unicode=" " horiz-adv-x="1090" 
 />
    <glyph glyph-name="c33" unicode="!" horiz-adv-x="1090" 
d="M475 733l574 2142h520l-578 -2142h-516zM279 0l135 496h516l-131 -496h-520z" />
    <glyph glyph-name="c34" unicode="&#x22;" horiz-adv-x="1823" 
d="M922 1995v880h512v-880h-512zM1659 1995v880h512v-880h-512z" />
    <glyph glyph-name="c35" unicode="#" horiz-adv-x="2335" 
d="M2445 1286l-102 -381h-397l-365 -905h-426l365 905h-332l-369 -905h-418l361 905h-385l98 381h447l143 361h-385l102 381h435l344 851h417l-344 -851h336l340 851h430l-344 -851h348l-102 -381h-401l-140 -361h344zM1819 1647h-336l-144 -361h332z" />
    <glyph glyph-name="c36" unicode="$" 
d="M492 971h512q-13 -59 -13 -90q0 -107 73 -176.5t185 -69.5q137 0 262 94q172 138 172 311q0 203 -208 263l-50 16q-283 87 -415.5 225t-132.5 340q0 271 159 516q76 115 205 221q109 99 238 160q65 28 135 37l135 508h487l-135 -508q139 -69 209 -156q115 -148 115 -340
q0 -71 -17 -168h-483v13q0 221 -196 221q-85 0 -164 -48.5t-127.5 -126t-48.5 -161.5q0 -75 45 -131q51 -55 245 -127l25 -8l29 -12q109 -37 176 -70q101 -42 172 -119q135 -154 135 -377q0 -227 -108.5 -442t-297.5 -369t-413 -209l-140 -520h-487l139 520
q-218 50 -338 202t-120 376q0 88 24 156z" />
    <glyph glyph-name="c37" unicode="%" horiz-adv-x="3346" 
d="M868 0l1962 2875h394l-1958 -2875h-398zM1556 2929q161 0 285.5 -64.5t192 -181t67.5 -270.5q0 -231 -151 -451q-131 -195 -338.5 -314.5t-419.5 -119.5q-158 0 -280.5 66t-189.5 183.5t-67 270.5q0 182 95.5 362.5t265.5 313.5q257 205 540 205zM2892 1331
q163 0 288 -64t193 -182.5t68 -273.5q0 -163 -75.5 -322t-206 -285.5t-294 -200t-334.5 -73.5q-239 0 -389.5 143.5t-150.5 372.5q0 184 97.5 365.5t266.5 314.5q120 96 263 150.5t274 54.5zM1454 2499q-89 0 -170.5 -48.5t-131.5 -126.5t-50 -161q0 -85 58 -143t143 -58
q133 0 242.5 105.5t109.5 234.5q0 88 -55.5 142.5t-145.5 54.5zM2793 897q-143 0 -247.5 -97.5t-104.5 -230.5q0 -91 57.5 -150t143.5 -59q107 0 209 82q147 114 147 271q0 83 -57 133.5t-148 50.5z" />
    <glyph glyph-name="c38" unicode="&#x26;" horiz-adv-x="2646" 
d="M2449 1696h574l-729 -869l364 -553l-467 -327l-282 409q-192 -180 -328 -266q-266 -160 -524 -160q-206 0 -373.5 87t-261.5 240t-94 345q0 293 172 553q88 133 209 242q142 126 413 270q-72 113 -97.5 186.5t-25.5 165.5q0 224 160 471q137 202 350.5 320.5t440.5 118.5
q256 0 414.5 -143.5t158.5 -377.5q0 -236 -147 -466q-91 -132 -193 -218q-109 -99 -328 -208l189 -299zM1626 1872q208 90 296.5 180t88.5 213q0 164 -196 164q-123 0 -213.5 -87t-90.5 -208q0 -100 115 -262zM1651 750l-312 503q-161 -66 -266 -147q-217 -167 -217 -397
q0 -125 82.5 -200t220.5 -75q129 0 241.5 72t250.5 244z" />
    <glyph glyph-name="c39" unicode="'" horiz-adv-x="1069" 
d="M918 1999v880h512v-880h-512z" />
    <glyph glyph-name="c40" unicode="(" horiz-adv-x="1479" 
d="M1368 45l-143 -545q-95 28 -135 45q-150 58 -279 242q-274 377 -274 889q0 324 117.5 664t336.5 647q216 298 496 532q108 92 250 184q156 98 389 168l-144 -540q-162 -115 -241 -181q-284 -245 -463 -602q-197 -388 -197 -762q0 -135 33 -290q32 -141 82 -229t172 -222z
" />
    <glyph glyph-name="c41" unicode=")" horiz-adv-x="1479" 
d="M770 2331l143 540q109 -37 160 -65q162 -88 291 -287q238 -352 238 -831q0 -684 -467 -1323q-249 -329 -529 -553q-140 -108 -254 -177q-141 -80 -340 -135l144 545q175 124 237 176q280 237 471 610q189 378 189 758q0 148 -29 279q-30 139 -82 233.5t-172 229.5z" />
    <glyph glyph-name="c42" unicode="*" horiz-adv-x="1712" 
d="M1167 1774l-209 118l304 353l-394 -29l70 270l381 -24l-115 348l266 115l82 -349l275 353l184 -136l-299 -331l397 28l-73 -274l-389 25l131 -328l-258 -139l-86 360z" />
    <glyph glyph-name="c43" unicode="+" horiz-adv-x="2335" 
d="M1257 1475v741h451v-741h754v-451h-754v-770h-451v770h-757v451h757z" />
    <glyph glyph-name="c44" unicode="," horiz-adv-x="1090" 
d="M-66 -537l492 1078h516l-491 -1078h-517z" />
    <glyph glyph-name="c45" unicode="-" horiz-adv-x="1634" 
d="M614 1032v459h1078v-459h-1078z" />
    <glyph glyph-name="c46" unicode="." horiz-adv-x="1090" 
d="M279 0l139 516h516l-135 -516h-520z" />
    <glyph glyph-name="c47" unicode="/" horiz-adv-x="1790" 
d="M-33 -500l2163 3375h364l-2162 -3375h-365z" />
    <glyph glyph-name="c48" unicode="0" 
d="M631 1917q120 442 409 696q166 148 387.5 232t436.5 84q222 0 390.5 -82.5t259.5 -234.5t91 -351q0 -155 -49 -344l-262 -975q-120 -442 -410 -696q-171 -150 -385 -233t-426 -83q-218 0 -392 84t-272 232.5t-98 335.5q0 153 66 385zM2044 1929q20 97 20 164
q0 154 -89 243t-242 89q-105 0 -210.5 -43t-183.5 -117q-135 -129 -192 -356l-250 -930q-41 -139 -41 -229q0 -144 92 -230t248 -86q209 0 389 160q133 127 201 377z" />
    <glyph glyph-name="c49" unicode="1" 
d="M958 0l639 2384h-364l131 491h881l-770 -2875h-517z" />
    <glyph glyph-name="c50" unicode="2" 
d="M164 0l131 492l1237 921q299 221 405 373q123 173 123 336q0 141 -86 222t-233 81q-212 0 -367 -143.5t-219 -397.5h-520l29 103q67 255 252 473t434 343.5t505 125.5q216 0 383.5 -87t259 -244t91.5 -357q0 -290 -164 -562q-133 -205 -262 -319l-463 -381l-680 -487
h1134l-131 -492h-1859z" />
    <glyph glyph-name="c51" unicode="3" 
d="M1212 1376l131 492h37q236 0 368 99.5t132 277.5q0 84 -54.5 132t-150.5 48q-111 0 -190 -64t-117 -182h-516q51 158 127 279q149 215 374 343t453 128q174 0 312.5 -73.5t216.5 -205t78 -295.5q0 -451 -410 -704q117 -56 172 -127q115 -146 115 -373q0 -234 -105 -455.5
t-286 -393.5t-413.5 -272t-477.5 -100q-215 0 -386.5 89.5t-267.5 250.5t-96 361q0 86 29 221h520q-8 -82 -8 -94q0 -91 47 -165t128.5 -116.5t184.5 -42.5q149 0 287 83.5t222.5 222t84.5 284.5q0 352 -491 352h-50z" />
    <glyph glyph-name="c52" unicode="4" 
d="M229 852l1864 2023h434l-524 -1957h303l-131 -492h-303l-115 -426h-516l115 426h-1241zM1487 918l291 1081l-979 -1081h688z" />
    <glyph glyph-name="c53" unicode="5" 
d="M2519 2875l-135 -491h-914l-229 -529q215 82 381 82q204 0 361 -90.5t242 -254.5t85 -380q0 -239 -108 -469.5t-297.5 -416t-424 -291t-476.5 -105.5q-206 0 -379 96t-274 262.5t-101 362.5q0 66 24 201h517q0 -25 -2.5 -48.5t-2.5 -33.5q0 -147 97 -241.5t247 -94.5
q163 0 312.5 90t240.5 239.5t91 313.5q0 154 -107 255.5t-270 101.5q-210 0 -426 -193l-430 127l676 1507h1302z" />
    <glyph glyph-name="c54" unicode="6" 
d="M1884 2875h610l-905 -974l148 8q12 4 32 4q160 0 300 -89.5t221.5 -241t81.5 -329.5q0 -247 -108.5 -486t-297 -429t-427 -299t-482.5 -109q-222 0 -395.5 91.5t-268 259t-94.5 387.5q0 498 426 954zM1458 1434q-162 -6 -308 -96t-232.5 -234.5t-86.5 -304.5
q0 -166 98.5 -265.5t262.5 -99.5q158 0 304.5 89.5t236.5 235.5t90 302q0 106 -46.5 192t-128 133.5t-182.5 47.5h-8z" />
    <glyph glyph-name="c55" unicode="7" 
d="M332 0l1712 2384h-1151l131 491h1692l-131 -491l-1680 -2384h-573z" />
    <glyph glyph-name="c56" unicode="8" 
d="M975 1597q-127 176 -127 324q0 117 52 268.5t136 276.5q147 213 367.5 338t451.5 125q177 0 313 -71.5t211 -203t75 -299.5q0 -202 -95 -397q-29 -64 -73 -123q-70 -102 -238 -238q123 -85 172 -163q82 -131 82 -312q0 -223 -103 -437.5t-280.5 -385t-404 -270
t-457.5 -99.5q-216 0 -383.5 87t-258.5 245t-91 365q0 314 192 594q96 142 229 249q94 74 230 127zM1741 2425q-129 0 -246 -90q-156 -124 -156 -279q0 -102 65.5 -165.5t168.5 -63.5q129 0 237 86q156 128 156 291q0 96 -64 158.5t-161 62.5zM1438 1319q-146 0 -280.5 -80
t-218 -211.5t-83.5 -273.5q0 -138 95 -229t241 -91q143 0 277 79.5t215 209.5t81 268q0 95 -41.5 170t-116.5 116.5t-169 41.5z" />
    <glyph glyph-name="c57" unicode="9" 
d="M430 0l893 967h-94q-205 0 -357 80t-233.5 227.5t-81.5 347.5q0 246 107.5 482.5t293 423t421.5 294t481 107.5q221 0 394.5 -91t270 -255.5t96.5 -374.5q0 -157 -41 -307q-54 -193 -157.5 -357.5t-313.5 -392.5l-1069 -1151h-610zM1724 2425q-155 0 -300 -90
t-233.5 -236t-88.5 -305q0 -162 98 -259t262 -97q154 0 300 90.5t236.5 237t90.5 302.5q0 157 -102.5 257t-262.5 100z" />
    <glyph glyph-name="c58" unicode=":" horiz-adv-x="1090" 
d="M279 0l139 516h516l-135 -516h-520zM664 1438l139 516h516l-135 -516h-520z" />
    <glyph glyph-name="c59" unicode=";" horiz-adv-x="1090" 
d="M664 1438l139 516h516l-135 -516h-520zM-66 -537l492 1078h516l-491 -1078h-517z" />
    <glyph glyph-name="c60" unicode="&#x3c;" horiz-adv-x="2335" 
d="M2367 569v-430l-1978 877v385l1978 880v-430l-1409 -651z" />
    <glyph glyph-name="c61" unicode="=" horiz-adv-x="2335" 
d="M2478 1839v-446h-1962v446h1962zM2478 1081v-446h-1962v446h1962z" />
    <glyph glyph-name="c62" unicode="&#x3e;" horiz-adv-x="2335" 
d="M614 561l1405 631l-1405 651v430l1979 -880v-385l-1979 -877v430z" />
    <glyph glyph-name="c63" unicode="?" 
d="M1188 2032h-520q42 113 45 118q45 124 123 234q75 117 186 218t240 174t270 113t274 40q189 0 339 -83.5t233.5 -234.5t83.5 -342q0 -293 -168 -524q-134 -189 -443 -406q-128 -93 -173.5 -135t-100.5 -114q-62 -87 -98 -226l-33 -131h-520l32 111q60 241 218 454
q76 107 152.5 176t252.5 193q150 100 205 156q147 141 147 336q0 123 -74 188.5t-212 65.5q-316 0 -459 -381zM729 0l135 496h516l-131 -496h-520z" />
    <glyph glyph-name="c64" unicode="@" horiz-adv-x="3490" 
d="M2781 479h369q-211 -200 -346.5 -295t-325.5 -180q-337 -147 -684 -147q-259 0 -478.5 77.5t-378.5 224t-243 348.5t-84 443q0 359 162.5 705t442.5 616.5t636 427t729 156.5q310 0 558.5 -121t388 -336t139.5 -481q0 -231 -106 -486t-283 -444q-122 -133 -297.5 -249
t-352.5 -183.5t-309 -67.5q-79 0 -127.5 38t-48.5 102q0 15 12 65q-240 -188 -466 -188q-221 0 -350.5 127t-129.5 348q0 141 54.5 302t154.5 312q106 159 251 279.5t305.5 183t320.5 62.5q157 0 278 -70q81 -45 144 -164l94 201h373l-504 -1155l-4 -12l-9 -21
q-20 -48 -20 -53q-4 -4 -4 -13q0 -45 49 -45q54 0 153 55t167 126q156 158 254 395.5t98 460.5q0 228 -103 396t-298.5 256.5t-462.5 88.5q-311 0 -597.5 -124t-510.5 -343.5t-351 -502t-127 -586.5q0 -258 120 -453t341 -301.5t514 -106.5q213 0 406 70q136 47 228.5 96.5
t258.5 165.5zM2236 1700q-111 0 -226.5 -71t-199.5 -191q-94 -146 -94 -283q0 -110 60 -171.5t166 -61.5q162 0 303 110q105 84 169 202t64 228q0 112 -65 175t-177 63z" />
    <glyph glyph-name="c65" unicode="A" horiz-adv-x="2879" 
d="M29 0l1966 2875h418l438 -2875h-586l-115 741h-1015l-521 -741h-585zM1397 1204h700l-98 897l16 107l-41 -107z" />
    <glyph glyph-name="c192" unicode="&#xc0;" horiz-adv-x="2879" 
d="M29 0l1966 2875h418l438 -2875h-586l-115 741h-1015l-521 -741h-585zM1397 1204h700l-98 897l16 107l-41 -107z" />
    <glyph glyph-name="c66" unicode="B" horiz-adv-x="2257" 
d="M266 0l770 2875h520q279 0 426 -12q184 -21 312 -98q116 -67 185 -194t69 -273q0 -244 -151.5 -454.5t-373.5 -274.5q177 -33 275 -158t98 -321t-94 -391t-266 -355q-134 -124 -286 -199.5t-339 -110t-428 -34.5h-717zM934 516h225q323 0 507.5 126.5t184.5 348.5
q0 61 -28 107q-30 58 -94 98q-104 57 -361 57h-233zM1270 1769h102q212 0 302.5 20t168.5 83q148 122 148 274q0 74 -37 119q-21 36 -86 66q-55 24 -115 24q-20 4 -225 4h-98z" />
    <glyph glyph-name="c67" unicode="C" horiz-adv-x="3035" 
d="M2531 782h619q-127 -167 -203 -247.5t-194 -174.5q-179 -137 -375.5 -233t-400.5 -146.5t-404 -50.5q-323 0 -579 143.5t-399.5 399.5t-143.5 580q0 486 311 946q188 277 455.5 489.5t572 326.5t606.5 114q287 0 534.5 -117t403.5 -326q68 -86 104 -176t68 -254h-606
q-68 105 -122.5 157.5t-143.5 100.5q-178 99 -393 99q-376 0 -721 -275q-158 -123 -277 -283.5t-181.5 -334.5t-62.5 -344q0 -207 93 -374.5t259 -261.5t373 -94q179 0 377 74q118 48 202.5 99t227.5 163z" />
    <glyph glyph-name="c209" unicode="&#xd1;" horiz-adv-x="3035" 
d="M2531 782h619q-127 -167 -203 -247.5t-194 -174.5q-179 -137 -375.5 -233t-400.5 -146.5t-404 -50.5q-323 0 -579 143.5t-399.5 399.5t-143.5 580q0 486 311 946q188 277 455.5 489.5t572 326.5t606.5 114q287 0 534.5 -117t403.5 -326q68 -86 104 -176t68 -254h-606
q-68 105 -122.5 157.5t-143.5 100.5q-178 99 -393 99q-376 0 -721 -275q-158 -123 -277 -283.5t-181.5 -334.5t-62.5 -344q0 -207 93 -374.5t259 -261.5t373 -94q179 0 377 74q118 48 202.5 99t227.5 163z" />
    <glyph glyph-name="c68" unicode="D" horiz-adv-x="2724" 
d="M266 0l770 2875h602q263 0 454 -28t349 -90q271 -111 416 -354.5t145 -587.5q0 -221 -70 -449t-203.5 -440.5t-320.5 -393.5q-302 -296 -684 -421q-326 -111 -843 -111h-615zM934 516h70q318 0 510.5 43.5t365.5 153.5q170 107 299 263t199.5 338.5t70.5 364.5
q0 332 -208 508q-117 96 -287.5 134t-487.5 38h-36z" />
    <glyph glyph-name="c69" unicode="E" horiz-adv-x="2023" 
d="M266 0l770 2875h1544l-139 -516h-1011l-177 -663h967l-139 -516h-967l-180 -664h1012l-136 -516h-1544z" />
    <glyph glyph-name="c197" unicode="&#xc5;" horiz-adv-x="2023" 
d="M266 0l770 2875h1544l-139 -516h-1011l-177 -663h967l-139 -516h-967l-180 -664h1012l-136 -516h-1544z" />
    <glyph glyph-name="c70" unicode="F" horiz-adv-x="1868" 
d="M266 0l770 2875h1463l-140 -516h-929l-177 -663h885l-139 -516h-885l-315 -1180h-533z" />
    <glyph glyph-name="c71" unicode="G" horiz-adv-x="3269" 
d="M3584 2032h-639q-61 113 -110.5 167.5t-139.5 106.5q-182 107 -409 107q-177 0 -369 -66.5t-356 -183.5q-251 -181 -404 -443t-153 -516q0 -216 100 -389t278 -271t400 -98q365 0 712 259q124 85 275 262h-1204l135 499h1876l-17 -61q-106 -399 -402 -739t-702.5 -538
t-820.5 -198q-344 0 -615.5 140.5t-422 394t-150.5 575.5q0 351 165.5 691.5t453 612.5t648.5 428.5t732 156.5q300 0 555.5 -122t415.5 -341q111 -153 168 -434z" />
    <glyph glyph-name="c72" unicode="H" horiz-adv-x="2646" 
d="M266 0l770 2875h533l-312 -1151h1029l311 1151h532l-770 -2875h-536l323 1204h-1024l-323 -1204h-533z" />
    <glyph glyph-name="c73" unicode="I" horiz-adv-x="1090" 
d="M266 0l770 2875h533l-770 -2875h-533z" />
    <glyph glyph-name="c74" unicode="J" horiz-adv-x="1868" 
d="M1847 2875h533l-541 -2027q-62 -224 -125 -348t-174 -238q-100 -106 -219 -181t-247.5 -113t-258.5 -38q-275 0 -451 154.5t-176 394.5q0 53 25 180h532q0 -102 47.5 -149t153.5 -47q253 0 348 352z" />
    <glyph glyph-name="c75" unicode="K" horiz-adv-x="2413" 
d="M266 0l770 2875h533l-336 -1245l1229 1245h639l-1401 -1298l631 -1577h-639l-512 1430l-381 -1430h-533z" />
    <glyph glyph-name="c76" unicode="L" horiz-adv-x="1712" 
d="M266 0l770 2875h533l-635 -2359h881l-140 -516h-1409z" />
    <glyph glyph-name="c77" unicode="M" horiz-adv-x="3502" 
d="M266 0l770 2875h725l205 -2130l-16 -172l82 172l1282 2130h725l-770 -2875h-533l578 2154l-1323 -2154h-451l-164 2154l-577 -2154h-533z" />
    <glyph glyph-name="c78" unicode="N" horiz-adv-x="2879" 
d="M266 0l770 2875h598l623 -2052v-98l573 2150h537l-770 -2875h-594l-627 2040l-4 98l-573 -2138h-533z" />
    <glyph glyph-name="c79" unicode="O" horiz-adv-x="3269" 
d="M2376 2929q260 0 477 -79t372 -225.5t238.5 -351.5t83.5 -454q0 -501 -319 -963q-184 -272 -452.5 -484t-575.5 -327t-603 -115q-248 0 -460 79.5t-368.5 230t-239.5 354t-83 442.5q0 192 53.5 391.5t154 389.5t245 362t322.5 311q257 203 566.5 321t588.5 118z
M2277 2413q-240 0 -472 -102t-414 -277.5t-287 -397.5t-105 -456q0 -210 94 -377.5t261 -262t375 -94.5q390 0 753 287q161 125 277.5 284t177.5 332.5t61 346.5q0 204 -93 368t-258.5 256.5t-369.5 92.5z" />
    <glyph glyph-name="c206" unicode="&#xce;" horiz-adv-x="3269" 
d="M2376 2929q260 0 477 -79t372 -225.5t238.5 -351.5t83.5 -454q0 -501 -319 -963q-184 -272 -452.5 -484t-575.5 -327t-603 -115q-248 0 -460 79.5t-368.5 230t-239.5 354t-83 442.5q0 192 53.5 391.5t154 389.5t245 362t322.5 311q257 203 566.5 321t588.5 118z
M2277 2413q-240 0 -472 -102t-414 -277.5t-287 -397.5t-105 -456q0 -210 94 -377.5t261 -262t375 -94.5q390 0 753 287q161 125 277.5 284t177.5 332.5t61 346.5q0 204 -93 368t-258.5 256.5t-369.5 92.5z" />
    <glyph glyph-name="c80" unicode="P" 
d="M799 0h-533l770 2875h676q248 0 357.5 -9.5t191.5 -39.5q189 -64 297 -223t108 -375q0 -139 -46.5 -285t-134.5 -283.5t-208 -250.5q-190 -184 -417 -258q-114 -37 -250.5 -49t-417.5 -12h-102zM1229 1606h94h57h50q271 0 401 65q126 61 204.5 177t78.5 237
q0 191 -197 250q-99 24 -295 24h-37h-57h-98z" />
    <glyph glyph-name="c208" unicode="&#xd0;" 
d="M799 0h-533l770 2875h676q248 0 357.5 -9.5t191.5 -39.5q189 -64 297 -223t108 -375q0 -139 -46.5 -285t-134.5 -283.5t-208 -250.5q-190 -184 -417 -258q-114 -37 -250.5 -49t-417.5 -12h-102zM1229 1606h94h57h50q271 0 401 65q126 61 204.5 177t78.5 237
q0 191 -197 250q-99 24 -295 24h-37h-57h-98z" />
    <glyph glyph-name="c81" unicode="Q" horiz-adv-x="3269" 
d="M3330 410l-127 -480h-53q-173 0 -320 41q-97 32 -155 64.5t-160 111.5q-223 -105 -381 -147q-268 -70 -504 -70q-343 0 -613 140t-420.5 392.5t-150.5 569.5q0 358 161.5 701.5t442.5 614t637 426t730 155.5q344 0 615 -140t421.5 -394t150.5 -576q0 -335 -151 -676
q-43 -102 -119 -225q-72 -115 -148.5 -203t-228.5 -228q131 -77 287 -77h86zM2171 541q-188 166 -324 241q-254 136 -512 136q-137 0 -274 -46q70 -130 126.5 -194.5t147.5 -116.5q197 -115 455 -115q97 0 192 25q13 3 189 70zM2617 795q152 131 234 254q201 301 201 626
q0 214 -96 382.5t-266.5 262t-383.5 93.5q-430 0 -807 -308q-173 -139 -300.5 -319.5t-158.5 -331.5l-36 -156q220 54 417 54q236 0 409.5 -48.5t369.5 -168.5q180 -111 290 -209q60 -55 127 -131z" />
    <glyph glyph-name="c82" unicode="R" horiz-adv-x="2257" 
d="M266 0l770 2875h832q338 0 499 -69q116 -50 198.5 -139.5t126.5 -210t44 -261.5q0 -375 -323 -745q-108 -120 -234 -201q-35 -24 -127 -73q-144 -71 -336 -115l492 -1061h-656l-458 1102l-295 -1102h-533zM1200 1507h291q292 0 459 119q105 78 167 191t62 231
q0 131 -82 213q-63 60 -136 79t-237 19h-294z" />
    <glyph glyph-name="c83" unicode="S" horiz-adv-x="2023" 
d="M270 811h557q-16 -98 -16 -102q0 -117 87 -190t228 -73q129 0 242.5 67t181.5 178t68 239q0 130 -83.5 207.5t-305.5 156.5q-7 3 -47 18t-52 19q-136 52 -212 111q-218 165 -218 471q0 264 168 508q101 150 252 266.5t323 179t343 62.5q189 0 337.5 -79t233 -219.5
t84.5 -316.5q0 -68 -28 -200h-549q8 32 8 69q0 101 -70 165.5t-180 64.5q-100 0 -186 -54.5t-138.5 -144t-52.5 -191.5q0 -85 64 -146t215 -120l110 -41q176 -68 271 -127q274 -191 274 -495q0 -217 -99.5 -426.5t-274.5 -377.5t-393.5 -264t-444.5 -96q-207 0 -373.5 85.5
t-259 235.5t-92.5 339q0 78 28 221z" />
    <glyph glyph-name="c84" unicode="T" horiz-adv-x="1634" 
d="M557 0l631 2359h-529l140 516h1597l-139 -516h-537l-630 -2359h-533z" />
    <glyph glyph-name="c85" unicode="U" horiz-adv-x="2490" 
d="M1036 2875h533l-484 -1794q-57 -219 -57 -299q0 -147 89.5 -241.5t230.5 -94.5q109 0 223 54t198 151q66 77 105 164t88 266l479 1794h537l-484 -1794q-77 -287 -170 -459t-247 -319q-184 -171 -417 -272t-439 -101t-378 93.5t-270 256.5t-98 359q0 155 78 442z" />
    <glyph glyph-name="c86" unicode="V" horiz-adv-x="2724" 
d="M1147 0l-344 2875h557l188 -2187l1360 2187h561l-1884 -2875h-438z" />
    <glyph glyph-name="c87" unicode="W" horiz-adv-x="3502" 
d="M864 0l-65 2875h544l-36 -2011l1032 2011h389l-53 -2011l1044 2011h545l-1606 -2875h-426l45 1905l-991 -1905h-422z" />
    <glyph glyph-name="c88" unicode="X" horiz-adv-x="2646" 
d="M20 0l1377 1434l-606 1441h622l414 -987l950 987h623l-1381 -1441l611 -1434h-623l-422 979l-942 -979h-623z" />
    <glyph glyph-name="c213" unicode="&#xd5;" horiz-adv-x="2646" 
d="M20 0l1377 1434l-606 1441h622l414 -987l950 987h623l-1381 -1441l611 -1434h-623l-422 979l-942 -979h-623z" />
    <glyph glyph-name="c89" unicode="Y" horiz-adv-x="2413" 
d="M958 0l283 1061l-459 1814h586l274 -1323l979 1323h586l-1433 -1814l-283 -1061h-533z" />
    <glyph glyph-name="c90" unicode="Z" horiz-adv-x="1946" 
d="M193 455l1601 1904h-1032l139 516h1663l-131 -483l-1585 -1876h1159l-139 -516h-1798z" />
    <glyph glyph-name="c91" unicode="[" horiz-adv-x="1245" 
d="M1892 2875l-82 -299h-315l-733 -2732h315l-90 -340h-831l901 3371h835z" />
    <glyph glyph-name="c92" unicode="\" horiz-adv-x="2490" 
d="M1552 0l-454 2875h405l455 -2875h-406z" />
    <glyph glyph-name="c93" unicode="]" horiz-adv-x="1245" 
d="M885 2875h835l-905 -3371h-831l90 340h315l733 2732h-315z" />
    <glyph glyph-name="c94" unicode="^" horiz-adv-x="2671" 
d="M1364 2048l-356 180l909 774h467l491 -774l-450 -180l-332 692z" />
    <glyph glyph-name="c95" unicode="_" horiz-adv-x="1946" 
d="M1946 -537h-1946v349h1946v-349z" />
    <glyph glyph-name="c96" unicode="`" horiz-adv-x="2048" 
d="M1282 2912l328 398l725 -525l-303 -360z" />
    <glyph glyph-name="c97" unicode="a" horiz-adv-x="2535" 
d="M2933 2126l-574 -2126h-467l78 287q-109 -99 -182 -148t-191 -102q-249 -107 -467 -107q-235 0 -411.5 98t-271.5 276.5t-95 416.5q0 372 200.5 713.5t528 551t680.5 209.5q228 0 385 -94q80 -44 128.5 -101t109.5 -173l78 299h471zM1368 430q212 0 401.5 114.5
t303.5 305t114 403.5q0 136 -57.5 236.5t-164.5 153.5t-249 53q-212 0 -404 -114t-309.5 -303.5t-117.5 -397.5q0 -203 132.5 -327t350.5 -124z" />
    <glyph glyph-name="c224" unicode="&#xe0;" horiz-adv-x="2535" 
d="M2933 2126l-574 -2126h-467l78 287q-109 -99 -182 -148t-191 -102q-249 -107 -467 -107q-235 0 -411.5 98t-271.5 276.5t-95 416.5q0 372 200.5 713.5t528 551t680.5 209.5q228 0 385 -94q80 -44 128.5 -101t109.5 -173l78 299h471zM1368 430q212 0 401.5 114.5
t303.5 305t114 403.5q0 136 -57.5 236.5t-164.5 153.5t-249 53q-212 0 -404 -114t-309.5 -303.5t-117.5 -397.5q0 -203 132.5 -327t350.5 -124z" />
    <glyph glyph-name="c98" unicode="b" horiz-adv-x="2535" 
d="M209 0l770 2875h508l-258 -970q154 138 282 192q220 98 459 98q240 0 423 -102t283.5 -291t100.5 -434q0 -267 -116.5 -526t-319 -466.5t-454.5 -326.5t-515 -119q-241 0 -409 103q-73 45 -114.5 95.5t-94.5 158.5l-78 -287h-467zM1782 1696q-222 -6 -414 -116
t-305 -292.5t-113 -390.5q0 -215 133 -341t359 -126q210 0 396 114t298.5 302t112.5 399q0 203 -126 327t-329 124h-12z" />
    <glyph glyph-name="c99" unicode="c" horiz-adv-x="2458" 
d="M1917 692h577q-92 -143 -155.5 -219.5t-159.5 -157.5q-141 -121 -299 -207.5t-325.5 -132t-333.5 -45.5q-245 0 -442 107.5t-308 298.5t-111 426q0 271 121.5 529.5t334.5 463.5t480 322.5t547 117.5q237 0 434.5 -105t311.5 -292q83 -145 98 -377h-573
q-58 148 -152.5 211.5t-261.5 63.5q-158 0 -307 -65.5t-262 -179.5t-177.5 -262.5t-64.5 -307.5q0 -203 131 -327t348 -124q299 0 549 262z" />
    <glyph glyph-name="c241" unicode="&#xf1;" horiz-adv-x="2458" 
d="M1917 692h577q-92 -143 -155.5 -219.5t-159.5 -157.5q-141 -121 -299 -207.5t-325.5 -132t-333.5 -45.5q-245 0 -442 107.5t-308 298.5t-111 426q0 271 121.5 529.5t334.5 463.5t480 322.5t547 117.5q237 0 434.5 -105t311.5 -292q83 -145 98 -377h-573
q-58 148 -152.5 211.5t-261.5 63.5q-158 0 -307 -65.5t-262 -179.5t-177.5 -262.5t-64.5 -307.5q0 -203 131 -327t348 -124q299 0 549 262z" />
    <glyph glyph-name="c100" unicode="d" horiz-adv-x="2535" 
d="M3125 2875l-770 -2875h-471l78 287q-106 -102 -176.5 -153t-175.5 -97q-232 -107 -463 -107q-230 0 -410.5 104t-280.5 293t-100 431q0 229 97.5 467.5t275.5 445.5q206 236 493.5 380t551.5 144q198 0 360 -81q71 -38 115 -78.5t106 -126.5l258 966h512zM1360 430
q204 0 395.5 114.5t309.5 301t118 383.5q0 134 -60.5 241t-170 166.5t-252.5 59.5q-248 0 -483 -185q-154 -120 -241 -282t-87 -328q0 -209 131 -340t340 -131z" />
    <glyph glyph-name="c101" unicode="e" horiz-adv-x="2458" 
d="M2531 836h-1650q43 -406 454 -406q160 0 316 62q101 39 204 122h566q-87 -125 -138.5 -183.5t-136.5 -127.5q-215 -180 -460.5 -276.5t-485.5 -96.5q-241 0 -434.5 106t-301.5 295t-108 427q0 267 123 526t335 465t480.5 326t544.5 120q178 0 329.5 -61t262 -172
t171 -263t60.5 -335q0 -181 -53 -340q-6 -17 -17 -42t-40 -97q-10 -21 -21 -49zM995 1290h1172q-23 143 -70 209q-127 197 -393 197q-299 0 -549 -217q-81 -62 -160 -189z" />
    <glyph glyph-name="c229" unicode="&#xe5;" horiz-adv-x="2458" 
d="M2531 836h-1650q43 -406 454 -406q160 0 316 62q101 39 204 122h566q-87 -125 -138.5 -183.5t-136.5 -127.5q-215 -180 -460.5 -276.5t-485.5 -96.5q-241 0 -434.5 106t-301.5 295t-108 427q0 267 123 526t335 465t480.5 326t544.5 120q178 0 329.5 -61t262 -172
t171 -263t60.5 -335q0 -181 -53 -340q-6 -17 -17 -42t-40 -97q-10 -21 -21 -49zM995 1290h1172q-23 143 -70 209q-127 197 -393 197q-299 0 -549 -217q-81 -62 -160 -189z" />
    <glyph glyph-name="c102" unicode="f" horiz-adv-x="1073" 
d="M217 0l451 1675h-181l119 451h180q75 212 172 348q139 193 328 305.5t373 112.5h29l135 -8l-135 -508q-191 0 -261.5 -45.5t-128.5 -204.5h295l-118 -451h-299l-447 -1675h-512z" />
    <glyph glyph-name="c103" unicode="g" horiz-adv-x="2535" 
d="M2449 2126h467l-483 -1802q-80 -302 -201 -498.5t-331 -366.5q-142 -115 -300.5 -196.5t-324 -124.5t-318.5 -43q-155 0 -293.5 41.5t-252.5 121t-195 193.5q-54 76 -76 139.5t-39 192.5h582q157 -189 406 -189q286 0 528 177q125 94 209 225q62 98 135 299
q-139 -122 -228.5 -182t-201.5 -109q-174 -74 -352 -74q-237 0 -424 107t-291.5 297.5t-104.5 431.5q0 267 118 524.5t324 463t465.5 323.5t526.5 118q313 0 479 -180q52 -57 94 -180zM1376 430q182 0 358.5 102.5t301.5 282.5q139 202 139 418q0 135 -61 240.5t-171 164
t-251 58.5q-205 0 -391 -113t-299 -299t-113 -391q0 -138 60 -243t170 -162.5t257 -57.5z" />
    <glyph glyph-name="c104" unicode="h" horiz-adv-x="2302" 
d="M209 0l770 2875h508l-242 -909q106 96 217 143q182 86 385 86q183 0 328.5 -76t226 -212t80.5 -310q0 -147 -82 -446l-307 -1151h-512l279 1040q61 237 61 353q0 303 -315 303q-242 0 -402 -185q-69 -75 -113 -177t-96 -302l-278 -1032h-508z" />
    <glyph glyph-name="c105" unicode="i" horiz-adv-x="922" 
d="M209 0l569 2126h508l-569 -2126h-508zM844 2372l123 467h512l-127 -467h-508z" />
    <glyph glyph-name="c106" unicode="j" horiz-adv-x="999" 
d="M848 2126h508l-533 -1995q-70 -261 -204 -448.5t-322 -287t-424 -108.5l135 496q116 16 168 57q47 38 72.5 96.5t66.5 210.5zM913 2372l123 467h512l-127 -467h-508z" />
    <glyph glyph-name="c107" unicode="k" horiz-adv-x="2228" 
d="M209 0l770 2875h508l-467 -1749l950 1000h602l-1044 -1041l602 -1085h-684l-463 995l-266 -995h-508z" />
    <glyph glyph-name="c108" unicode="l" horiz-adv-x="922" 
d="M209 0l770 2875h508l-770 -2875h-508z" />
    <glyph glyph-name="c109" unicode="m" horiz-adv-x="3609" 
d="M209 0l569 2126h467l-53 -193q112 127 273.5 194.5t353.5 67.5q380 0 520 -299l8 -16l8 -12l4 4l4 4q9 8 19.5 18.5t42.5 38.5q330 262 704 262q201 0 350.5 -72t229.5 -206.5t80 -314.5q0 -126 -70 -406l-319 -1196h-512l303 1135q49 173 49 290q0 127 -77.5 199
t-217.5 72q-242 0 -401 -185q-31 -30 -78 -110q-66 -115 -135 -389l-271 -1012h-512l303 1135q45 179 45 258q0 145 -84.5 224t-234.5 79q-166 0 -295 -99q-97 -75 -162 -207t-129 -378l-274 -1012h-508z" />
    <glyph glyph-name="c110" unicode="n" horiz-adv-x="2302" 
d="M209 0l569 2126h471l-53 -193q145 124 270 181q194 81 385 81q189 0 332.5 -74t221 -211t77.5 -317q0 -162 -90 -491l-295 -1102h-512l270 1004q70 254 70 393q0 87 -38 155.5t-108.5 106t-160.5 37.5q-112 0 -222 -51t-188 -138q-72 -78 -121.5 -193.5t-111.5 -350.5
l-258 -963h-508z" />
    <glyph glyph-name="c111" unicode="o" horiz-adv-x="2482" 
d="M1831 2195q260 0 456.5 -103.5t304 -293t107.5 -438.5q0 -266 -121.5 -523t-333.5 -463t-478.5 -325t-540.5 -119q-186 0 -346 61t-277 174t-179.5 266.5t-62.5 338.5q0 292 157 586.5t425 507.5q195 154 433 242.5t456 88.5zM1696 1696q-208 -9 -396 -125t-301.5 -299
t-113.5 -383q0 -205 131 -332t340 -127t397.5 113t303 299.5t114.5 390.5q0 132 -60 238t-165.5 165.5t-237.5 59.5h-12z" />
    <glyph glyph-name="c238" unicode="&#xee;" horiz-adv-x="2482" 
d="M1831 2195q260 0 456.5 -103.5t304 -293t107.5 -438.5q0 -266 -121.5 -523t-333.5 -463t-478.5 -325t-540.5 -119q-186 0 -346 61t-277 174t-179.5 266.5t-62.5 338.5q0 292 157 586.5t425 507.5q195 154 433 242.5t456 88.5zM1696 1696q-208 -9 -396 -125t-301.5 -299
t-113.5 -383q0 -205 131 -332t340 -127t397.5 113t303 299.5t114.5 390.5q0 132 -60 238t-165.5 165.5t-237.5 59.5h-12z" />
    <glyph glyph-name="c112" unicode="p" horiz-adv-x="2535" 
d="M16 -713l762 2839h467l-74 -275q188 178 353 250q198 94 438 94q235 0 418.5 -100.5t284 -282t100.5 -415.5q0 -276 -118.5 -541.5t-321.5 -474.5t-459.5 -330t-522.5 -121q-198 0 -348 74q-111 60 -217 225l-250 -942h-512zM1778 1696q-213 0 -405.5 -114.5t-309.5 -305
t-117 -399.5q0 -197 131 -322t340 -125q202 0 391.5 115t306.5 302t117 386q0 203 -127 333t-327 130z" />
    <glyph glyph-name="c240" unicode="&#xf0;" horiz-adv-x="2535" 
d="M16 -713l762 2839h467l-74 -275q188 178 353 250q198 94 438 94q235 0 418.5 -100.5t284 -282t100.5 -415.5q0 -276 -118.5 -541.5t-321.5 -474.5t-459.5 -330t-522.5 -121q-198 0 -348 74q-111 60 -217 225l-250 -942h-512zM1778 1696q-213 0 -405.5 -114.5t-309.5 -305
t-117 -399.5q0 -197 131 -322t340 -125q202 0 391.5 115t306.5 302t117 386q0 203 -127 333t-327 130z" />
    <glyph glyph-name="c113" unicode="q" horiz-adv-x="2535" 
d="M2449 2126h467l-762 -2839h-507l249 942q-176 -152 -335 -221q-187 -78 -394 -78q-237 0 -421.5 103.5t-285 293t-100.5 435.5q0 162 45 322.5t130 311.5t206 287q144 157 319 274t359 177.5t359 60.5q303 0 479 -163q61 -56 115 -181zM1720 1696q-216 0 -410 -113
t-309.5 -301.5t-115.5 -400.5q0 -205 130 -328t345 -123q149 0 294.5 66t262 180.5t183.5 260t67 292.5q0 203 -126.5 335t-320.5 132z" />
    <glyph glyph-name="c114" unicode="r" horiz-adv-x="1229" 
d="M209 0l569 2126h463l-49 -193q95 104 184 164q150 98 348 98h37l-131 -495q-153 -6 -274 -66q-123 -55 -205 -164q-40 -56 -64 -116t-63 -207l-307 -1147h-508z" />
    <glyph glyph-name="c115" unicode="s" horiz-adv-x="1688" 
d="M1970 1544h-500v25q0 59 -42 93t-113 34q-104 0 -179 -65t-75 -156q0 -99 205 -156l24 -8q273 -79 399 -191.5t126 -279.5q0 -169 -83.5 -334t-226.5 -295t-323.5 -205.5t-366.5 -75.5q-174 0 -308 67.5t-208 190.5t-74 283q0 65 25 197h524v-17q0 -221 205 -221
q121 0 210 75t89 179q0 68 -56 114t-198 99q-5 0 -12 2t-8 2l-21 8l-78 29q-364 124 -364 442q0 205 129.5 395t340.5 305t443 115q151 0 274 -65t193 -178t70 -252q0 -33 -21 -156z" />
    <glyph glyph-name="c116" unicode="t" horiz-adv-x="1151" 
d="M283 0l450 1675h-250l123 451h246l192 713h512l-192 -713h307l-123 -451h-307l-446 -1675h-512z" />
    <glyph glyph-name="c117" unicode="u" horiz-adv-x="2302" 
d="M2159 2126h512l-570 -2126h-471l62 225q-73 -86 -164 -151q-207 -144 -467 -144q-190 0 -346 77.5t-245 213t-89 299.5q0 123 74 406l323 1200h508l-278 -1045q-62 -240 -62 -340q0 -148 86.5 -229.5t241.5 -81.5q431 0 606 651z" />
    <glyph glyph-name="c118" unicode="v" horiz-adv-x="2150" 
d="M864 0l-291 2126h570l119 -1397l864 1397h569l-1433 -2126h-398z" />
    <glyph glyph-name="c119" unicode="w" horiz-adv-x="3072" 
d="M807 0l-201 2126h545l45 -1299l700 1299h402l4 -1299l741 1299h541l-1339 -2126h-316l-37 1380l-770 -1380h-315z" />
    <glyph glyph-name="c120" unicode="x" horiz-adv-x="2150" 
d="M4 0l1049 1098l-385 1028h594l217 -582l516 582h594l-934 -1028l467 -1098h-627l-246 688l-614 -688h-631z" />
    <glyph glyph-name="c245" unicode="&#xf5;" horiz-adv-x="2150" 
d="M4 0l1049 1098l-385 1028h594l217 -582l516 582h594l-934 -1028l467 -1098h-627l-246 688l-614 -688h-631z" />
    <glyph glyph-name="c121" unicode="y" horiz-adv-x="2228" 
d="M221 -713l635 914l-262 1925h577l123 -1360l877 1360h582l-1983 -2839h-549z" />
    <glyph glyph-name="c122" unicode="z" horiz-adv-x="1765" 
d="M78 0l119 455l1273 1220h-839l123 451h1450l-123 -451l-1274 -1220h1012l-123 -455h-1618z" />
    <glyph glyph-name="c123" unicode="{" horiz-adv-x="1540" 
d="M2081 2839l-86 -312h-58q-141 0 -206 -53t-109 -205l-172 -651q-71 -268 -179 -404t-304 -206q105 -56 148.5 -137t43.5 -220q0 -125 -37 -258l-176 -651q-20 -75 -20 -135q0 -123 196 -123h58l-82 -307h-180q-330 0 -431 45q-56 27 -95.5 100t-39.5 154q0 69 33 213
l176 647q49 179 49 282q0 112 -49 171t-160 83l70 267q184 37 280.5 153t166.5 383l176 652q59 223 184 348q72 73 137.5 106.5t174 45.5t311.5 12h180z" />
    <glyph glyph-name="c124" unicode="|" horiz-adv-x="2335" 
d="M1151 -1012v4080h463v-4080h-463z" />
    <glyph glyph-name="c125" unicode="}" horiz-adv-x="1540" 
d="M926 2839h180q322 0 434 -50q53 -21 92 -96t39 -158q0 -106 -33 -208l-172 -652q-49 -184 -49 -278q0 -113 48 -173.5t161 -84.5l-74 -267q-118 -24 -200 -81q-86 -65 -140 -165t-106 -290l-172 -647q-64 -228 -189 -353q-101 -101 -213.5 -130t-404.5 -29h-180l82 307
h61q142 0 207 54t104 204l177 651q67 257 208 422q62 74 115.5 111t159.5 82q-75 34 -119.5 76t-65 103t-20.5 148q0 106 49 283l172 651q25 87 25 135q0 123 -197 123h-61z" />
    <glyph glyph-name="c126" unicode="~" horiz-adv-x="2335" 
d="M2691 2933l176 -283q-147 -165 -210 -225t-158 -127q-148 -103 -320 -103q-88 0 -189 35t-290 129q-180 90 -266 90q-87 0 -172 -61q-74 -47 -205 -205l-41 -49l-172 287q129 154 193 217.5t159 134.5q175 131 356 131q163 0 455 -151q209 -107 295 -107q79 0 156 53
q71 48 180 176z" />
    <glyph glyph-name="c193" unicode="&#xc1;" horiz-adv-x="2257" 
d="M1430 2359l-164 -610h188q539 0 746 -188q196 -177 196 -463q0 -200 -93 -396.5t-267 -357.5q-134 -124 -286 -199.5t-339 -110t-428 -34.5h-717l770 2875h1540l-139 -516h-1007zM934 516h225q115 0 197 8q132 6 270 86q103 60 166 168t63 226q0 80 -57 143
q-59 66 -160 90q-57 16 -270 16h-233z" />
    <glyph glyph-name="c194" unicode="&#xc2;" horiz-adv-x="2257" 
d="M266 0l770 2875h520q279 0 426 -12q184 -21 312 -98q116 -67 185 -194t69 -273q0 -244 -151.5 -454.5t-373.5 -274.5q177 -33 275 -158t98 -321t-94 -391t-266 -355q-134 -124 -286 -199.5t-339 -110t-428 -34.5h-717zM934 516h225q323 0 507.5 126.5t184.5 348.5
q0 61 -28 107q-30 58 -94 98q-104 57 -361 57h-233zM1270 1769h102q212 0 302.5 20t168.5 83q148 122 148 274q0 74 -37 119q-21 36 -86 66q-55 24 -115 24q-20 4 -225 4h-98z" />
    <glyph glyph-name="c195" unicode="&#xc3;" horiz-adv-x="1868" 
d="M266 0l770 2875h1463l-140 -516h-929l-631 -2359h-533z" />
    <glyph glyph-name="c196" unicode="&#xc4;" horiz-adv-x="3019" 
d="M2441 0h-1863l-160 -598h-504l299 1114h307l1553 2359h413l291 -2359h307l-299 -1114h-504zM1081 516h1135l-139 1606z" />
    <glyph glyph-name="c198" unicode="&#xc6;" horiz-adv-x="3658" 
d="M1982 1462l-1261 -1462h-639l1446 1638l-574 1237h639l426 -1265l340 1265h480l-336 -1265l1101 1265h639l-1237 -1237l570 -1638h-635l-479 1462l-394 -1462h-479z" />
    <glyph glyph-name="c199" unicode="&#xc7;" horiz-adv-x="2191" 
d="M1356 1761q15 0 37 -2t28 -2q197 0 344.5 115.5t147.5 273.5q0 99 -69 154t-193 55q-145 0 -235.5 -65.5t-149.5 -212.5h-553q58 198 129 325.5t186 239.5q312 291 758 291q335 0 519.5 -146t184.5 -411q0 -196 -81.5 -372t-221.5 -288q-101 -80 -274 -147
q409 -97 409 -500q0 -216 -101 -422t-278 -368t-401 -255.5t-461 -93.5q-236 0 -413 83.5t-271 239t-94 365.5q0 133 45 308h586q-21 -97 -21 -148q0 -129 89 -214t223 -85q137 0 261.5 71t199.5 187.5t75 245.5q0 151 -110 213q-51 27 -144 46.5t-180 19.5q-23 0 -49 -3.5
t-57 -5.5z" />
    <glyph glyph-name="c200" unicode="&#xc8;" horiz-adv-x="2646" 
d="M799 0h-533l770 2875h533l-565 -2101l65 98l1659 2003h532l-770 -2875h-532l561 2093l-61 -86z" />
    <glyph glyph-name="c239" unicode="&#xef;" horiz-adv-x="2302" 
d="M209 0l569 2126h471l-53 -193q145 124 270 181q194 81 385 81q189 0 332.5 -74t221 -211t77.5 -317q0 -162 -90 -491l-295 -1102h-512l270 1004q70 254 70 393q0 87 -38 155.5t-108.5 106t-160.5 37.5q-112 0 -222 -51t-188 -138q-72 -78 -121.5 -193.5t-111.5 -350.5
l-258 -963h-508z" />
    <glyph glyph-name="c233" unicode="&#xe9;" horiz-adv-x="2302" 
d="M2159 2126h512l-570 -2126h-471l62 225q-73 -86 -164 -151q-207 -144 -467 -144q-190 0 -346 77.5t-245 213t-89 299.5q0 123 74 406l323 1200h508l-278 -1045q-62 -240 -62 -340q0 -148 86.5 -229.5t241.5 -81.5q431 0 606 651zM1298 2916h385q27 -168 205 -168
q181 0 312 168h385q-71 -151 -131 -225q-240 -303 -656 -303q-232 0 -370 111.5t-138 298.5q0 28 8 118z" />
    <glyph glyph-name="c236" unicode="&#xec;" horiz-adv-x="2822" 
d="M197 0l569 2126h860l4 -1340h33l770 1340h766l-569 -2126h-512l434 1626h-37l-938 -1626h-332l-65 1626h-37l-438 -1626h-508z" />
    <glyph glyph-name="c225" unicode="&#xe1;" horiz-adv-x="2417" 
d="M1208 -49q-260 10 -397 82q-196 96 -303 270t-107 402q0 117 45 294l99 390q64 251 102 368t85.5 210.5t127.5 211.5q151 208 340 348q160 119 346.5 180.5t517.5 106.5q286 41 384 62t235 69l-139 -520q-148 -52 -250.5 -75t-339.5 -60q-197 -29 -300.5 -51t-178 -53.5
t-164.5 -92.5q-179 -120 -296 -309t-192 -481q107 213 265 369t348.5 239.5t390.5 83.5q223 0 394.5 -87.5t265 -248.5t93.5 -373q0 -181 -59.5 -363t-172 -345.5t-267.5 -294.5q-200 -164 -430 -254q-102 -38 -190.5 -53.5t-252.5 -24.5zM885 750q15 -158 132 -251t298 -93
q186 0 361 103t281.5 271t106.5 350q0 117 -56 210t-155 144.5t-223 51.5q-195 0 -369 -102.5t-277 -274t-103 -368.5q0 -29 4 -41z" />
    <glyph glyph-name="c234" unicode="&#xea;" horiz-adv-x="2228" 
d="M209 0l569 2126h508l-266 -1000l950 1000h602l-1044 -1041l602 -1085h-684l-463 995l-266 -995h-508z" />
    <glyph glyph-name="c226" unicode="&#xe2;" horiz-adv-x="2261" 
d="M1823 1540q268 -41 385 -123q164 -121 164 -364q0 -293 -205 -590q-365 -533 -1037 -533q-234 0 -400.5 76t-253.5 221t-87 346q0 153 33 267l29 110l241 897q123 459 369 705q166 169 374.5 260.5t419.5 91.5q201 0 344 -68t219 -197t76 -308q0 -275 -147 -492
q-58 -89 -135 -143q-72 -61 -148.5 -90.5t-240.5 -65.5zM1225 1229l123 459h24q157 0 235 20t150 78q89 73 143 174.5t54 198.5q0 237 -258 237q-174 0 -286.5 -116.5t-180.5 -370.5l-262 -975q-41 -148 -41 -229q0 -141 96 -228.5t252 -87.5q145 0 273.5 76.5t206 203
t77.5 265.5q0 156 -101 225.5t-329 69.5h-176z" />
    <glyph glyph-name="c227" unicode="&#xe3;" horiz-adv-x="1688" 
d="M545 1544q62 189 194 337.5t309.5 231t372.5 82.5q237 0 393 -137t156 -346q0 -176 -83 -330t-239 -268.5t-366 -175.5l-94 -29l-25 -8q-1 0 -9 -2t-15 -2q-213 -65 -303.5 -138.5t-90.5 -180.5q0 -67 51.5 -107.5t141.5 -40.5q207 0 332 238h520q-67 -193 -148 -303
q-97 -134 -226.5 -232t-280 -150.5t-304.5 -52.5q-262 0 -434 153.5t-172 387.5q0 247 144 447q182 258 716 393h13q194 50 267 106t73 156q0 57 -42.5 90t-113.5 33q-164 0 -238 -152h-499z" />
    <glyph glyph-name="c228" unicode="&#xe4;" horiz-adv-x="2535" 
d="M2449 2126h467l-483 -1802q-80 -302 -201 -498.5t-331 -366.5q-142 -115 -300.5 -196.5t-324 -124.5t-318.5 -43q-155 0 -293.5 41.5t-252.5 121t-195 193.5q-54 76 -76 139.5t-39 192.5h582q157 -189 406 -189q286 0 528 177q125 94 209 225q62 98 135 299
q-139 -122 -228.5 -182t-201.5 -109q-174 -74 -352 -74q-237 0 -424 107t-291.5 297.5t-104.5 431.5q0 267 118 524.5t324 463t465.5 323.5t526.5 118q313 0 479 -180q52 -57 94 -180zM1376 430q182 0 358.5 102.5t301.5 282.5q139 202 139 418q0 135 -61 240.5t-171 164
t-251 58.5q-205 0 -391 -113t-299 -299t-113 -391q0 -138 60 -243t170 -162.5t257 -57.5z" />
    <glyph glyph-name="c242" unicode="&#xf2;" horiz-adv-x="3609" 
d="M209 0l569 2126h467l-53 -193q112 127 273.5 194.5t353.5 67.5q380 0 520 -299l8 -16l8 -12l4 4l4 4q9 8 19.5 18.5t42.5 38.5q330 262 704 262q201 0 350.5 -72t229.5 -206.5t80 -314.5q0 -126 -70 -406l-319 -1196h-512l303 1135q49 173 49 290q0 127 -77.5 199
t-217.5 72q-242 0 -401 -185q-31 -30 -78 -110q-66 -115 -135 -389l-271 -1012h-512l303 1135q45 179 45 258q0 145 -84.5 224t-234.5 79q-166 0 -295 -99q-97 -75 -162 -207t-129 -378l-274 -1012h-508z" />
    <glyph glyph-name="c237" unicode="&#xed;" horiz-adv-x="2347" 
d="M1987 1323l213 803h512l-570 -2126h-512l234 868h-914l-233 -868h-508l569 2126h508l-213 -803h914z" />
    <glyph glyph-name="c184" unicode="&#xb8;" horiz-adv-x="2458" 
d="M2531 836h-1650q43 -406 454 -406q160 0 316 62q101 39 204 122h566q-87 -125 -138.5 -183.5t-136.5 -127.5q-215 -180 -460.5 -276.5t-485.5 -96.5q-241 0 -434.5 106t-301.5 295t-108 427q0 267 123 526t335 465t480.5 326t544.5 120q178 0 329.5 -61t262 -172
t171 -263t60.5 -335q0 -181 -53 -340q-6 -17 -17 -42t-40 -97q-10 -21 -21 -49zM995 1290h1172q-23 143 -70 209q-127 197 -393 197q-299 0 -549 -217q-81 -62 -160 -189zM1188 2413l139 516h516l-139 -516h-516zM2007 2413l135 516h520l-139 -516h-516z" />
    <glyph glyph-name="c243" unicode="&#xf3;" horiz-adv-x="2228" 
d="M221 -713l635 914l-262 1925h577l123 -1360l877 1360h582l-1983 -2839h-549z" />
    <glyph glyph-name="c247" unicode="&#xf7;" horiz-adv-x="2277" 
d="M2134 2126h512l-573 -2126h-508l233 877q-248 -299 -647 -299q-184 0 -318.5 67t-207 193.5t-72.5 296.5q0 151 78 438l147 553h508l-102 -393l-66 -234q-12 -43 -12 -131q0 -291 307 -291q227 0 376.5 160.5t238.5 495.5z" />
    <glyph glyph-name="c244" unicode="&#xf4;" horiz-adv-x="2941" 
d="M2474 2875l-184 -696h20q255 0 446 -100t294.5 -286t103.5 -433q0 -194 -71 -396.5t-203 -382t-312 -319.5q-196 -149 -401.5 -222.5t-474.5 -88.5l-189 -696h-463l185 696q-225 13 -402 78q-143 56 -247 163.5t-160 257.5t-56 320q0 265 118 518t326.5 456.5t468 319
t529.5 115.5h21l188 696h463zM1356 430l340 1266q-222 -21 -408.5 -135.5t-294.5 -293.5t-108 -378q0 -164 90 -283q62 -86 142 -122.5t239 -53.5zM1819 430q168 17 266.5 53t208.5 123q102 80 178 184.5t115 220t39 226.5q0 197 -123.5 317.5t-343.5 141.5z" />
    <glyph glyph-name="c246" unicode="&#xf6;" horiz-adv-x="2437" 
d="M1880 0h-217l78 283q-112 -138 -213 -209q-207 -144 -471 -144q-208 0 -360 72.5t-234 208.5t-82 321q0 105 74 394l323 1200h508l-278 -1045q-62 -240 -62 -340q0 -148 86.5 -229.5t241.5 -81.5q431 0 606 651l279 1045h512l-480 -1790h209l-225 -828h-426z" />
    <glyph glyph-name="c230" unicode="&#xe6;" horiz-adv-x="3375" 
d="M1745 1077l-967 -1077h-684l1184 1171l-483 955h602l385 -918l246 918h458l-245 -918l876 918h602l-995 -955l553 -1171h-684l-389 1077l-287 -1077h-459z" />
    <glyph glyph-name="c248" unicode="&#xf8;" horiz-adv-x="3609" 
d="M3969 2126l-569 -2126h-471l53 197q-230 -267 -627 -267q-377 0 -520 299l-8 17l-8 16q-28 -34 -37 -41q-341 -291 -733 -291q-204 0 -353.5 72.5t-230 208.5t-80.5 317q0 136 74 406l319 1192h508l-303 -1131q-49 -195 -49 -295q0 -125 79 -197.5t216 -72.5
q236 0 401 184q70 80 114.5 183t102.5 317l271 1012h512l-303 -1131q-50 -177 -50 -262q0 -142 85.5 -222.5t234.5 -80.5q171 0 295 98q97 79 162.5 208t132.5 378l270 1012h512z" />
    <glyph glyph-name="c250" unicode="&#xfa;" horiz-adv-x="2167" 
d="M389 0l447 1675h-312l123 451h807l-192 -721h294q398 0 553 -143q144 -124 144 -336q0 -185 -78.5 -365.5t-216.5 -306.5q-139 -133 -323.5 -193.5t-450.5 -60.5h-795zM1004 455h229h143q81 0 168 41q82 38 131 111.5t49 158.5q0 105 -73.5 142.5t-274.5 37.5h-237z" />
    <glyph glyph-name="c249" unicode="&#xf9;" horiz-adv-x="3736" 
d="M3178 0h-204l73 279q-118 -140 -188 -193q-92 -71 -228.5 -113.5t-267.5 -42.5q-387 0 -528 299l-8 17l-8 16q-28 -34 -37 -41q-341 -291 -733 -291q-204 0 -353.5 72.5t-230 208.5t-80.5 317q0 136 74 406l319 1192h508l-303 -1131q-49 -195 -49 -295q0 -125 79 -197.5
t216 -72.5q236 0 401 184q70 80 114.5 183t102.5 317l271 1012h512l-303 -1131q-50 -177 -50 -262q0 -142 85.5 -222.5t234.5 -80.5q171 0 295 98q97 79 162.5 208t132.5 378l270 1012h512l-487 -1811h208l-217 -807h-426z" />
    <glyph glyph-name="c231" unicode="&#xe7;" horiz-adv-x="1855" 
d="M831 705q-8 -37 -8 -78q0 -205 238 -205q151 0 262 100.5t111 235.5q0 102 -79.5 149t-260.5 47q-1 0 -99 -8l90 340q33 -4 74 -4q154 0 253 69.5t99 176.5q0 164 -208 164q-235 0 -304 -234h-475l13 41l24 70q65 199 242 368q258 258 684 258q269 0 415 -118.5
t146 -339.5q0 -440 -459 -582q182 -48 263 -137t81 -244q0 -229 -135.5 -424.5t-368.5 -309.5t-503 -114q-298 0 -477 150t-179 395q0 87 37 234h524z" />
    <glyph glyph-name="c235" unicode="&#xeb;" horiz-adv-x="2150" 
d="M1847 2126l287 -2126h-565l-123 1397l-860 -1397h-570l1430 2126h401z" />
    <glyph glyph-name="c252" unicode="&#xfc;" horiz-adv-x="1982" 
d="M1077 1405h299q392 0 553 -143q144 -131 144 -336q0 -183 -79.5 -364t-215.5 -308q-143 -134 -327.5 -194t-451.5 -60h-790l569 2126h496zM823 455h230h143q81 0 168 41q80 38 128 111.5t48 158.5q0 105 -72.5 142.5t-275.5 37.5h-234z" />
    <glyph glyph-name="c255" unicode="&#xff;" horiz-adv-x="1982" 
d="M1769 0h-503l245 922l-856 -922h-565l930 930q-133 13 -229 49q-108 43 -169 141t-61 228q0 167 91 330.5t245 275.5q135 96 300 134t441 38h701zM1581 1184l143 540h-184q-200 0 -311 -61q-75 -41 -125.5 -121t-50.5 -158q0 -200 348 -200h180z" />
    <glyph glyph-name="c254" unicode="&#xfe;" horiz-adv-x="3326" 
d="M1233 868h-283l-233 -868h-508l569 2126h508l-213 -803h299q107 237 325.5 438.5t488.5 317.5t534 116q250 0 444.5 -104.5t301 -294.5t106.5 -436q0 -266 -122 -522.5t-334.5 -463t-479 -325.5t-539.5 -119q-252 0 -449.5 108t-308 300.5t-110.5 435.5q0 49 4 94z
M2564 1696q-207 -9 -393.5 -125t-300 -299t-113.5 -383q0 -206 129 -332.5t338 -126.5q208 0 397.5 112.5t305.5 299t116 391.5q0 130 -60 237t-167 166.5t-236 59.5h-16z" />
    <glyph glyph-name="c232" unicode="&#xe8;" horiz-adv-x="2302" 
d="M2159 2126h512l-570 -2126h-471l62 225q-73 -86 -164 -151q-207 -144 -467 -144q-190 0 -346 77.5t-245 213t-89 299.5q0 123 74 406l323 1200h508l-278 -1045q-62 -240 -62 -340q0 -148 86.5 -229.5t241.5 -81.5q431 0 606 651z" />
    <glyph glyph-name="c176" unicode="&#xb0;" horiz-adv-x="1556" 
d="M1970 2302q0 -163 -77 -299.5t-210.5 -215.5t-293.5 -79q-158 0 -293.5 78.5t-214 214t-78.5 293.5q0 157 79 291.5t213.5 212t293.5 77.5q153 0 286.5 -78.5t214 -212t80.5 -282.5zM1737 2286q0 147 -102.5 251.5t-250.5 104.5q-95 0 -174.5 -47t-126.5 -126.5
t-47 -174.5q0 -147 102.5 -249.5t250.5 -102.5q140 0 244 103t104 241z" />
    <glyph glyph-name="c162" unicode="&#xa2;" horiz-adv-x="2150" 
d="M1356 152h-479l110 417q-160 50 -238 106.5t-139 168.5q-98 179 -98 389q0 330 238 643q145 188 352 324q138 90 364 151l103 385h483l-106 -385q167 -56 258 -135q112 -96 172 -242q41 -110 41 -278h-537q-77 180 -311 180q-136 0 -261 -77.5t-202.5 -202.5t-77.5 -261
q0 -135 90.5 -217t237.5 -82q93 0 171 33.5t193 118.5h561q-118 -170 -200.5 -258.5t-208.5 -179.5q-92 -66 -174.5 -102.5t-227.5 -78.5z" />
    <glyph glyph-name="c163" unicode="&#xa3;" horiz-adv-x="2449" 
d="M287 0l131 492h540q160 196 160 405q0 81 -26.5 148.5t-92.5 158.5h-548l131 488h217q-8 98 -8 102q0 274 192 549q119 176 287.5 309t359.5 205t381 72q194 0 354.5 -91.5t253.5 -251t93 -350.5q0 -37 -17 -131h-524v37q0 120 -87 201.5t-216 81.5q-128 0 -246.5 -68
t-200.5 -190q-106 -153 -106 -303q0 -88 45 -172h811l-131 -488h-422q29 -114 29 -205q0 -272 -140 -507l37 -5q4 0 13 -2t12 -2q202 0 342.5 161.5t140.5 395.5v21h512q8 -25 8 -57q0 -107 -58 -249t-151 -268q-237 -312 -589 -430q-177 -57 -435 -57h-1052z" />
    <glyph glyph-name="c167" unicode="&#xa7;" 
d="M2548 2257h-488q4 24 4 61q0 93 -73 145t-209 52q-145 0 -234.5 -66.5t-89.5 -175.5q0 -119 213 -241l483 -283q129 -72 185.5 -166.5t56.5 -234.5q0 -154 -74 -299q-31 -65 -94 -148q-116 -143 -299 -258q94 -141 94 -274q0 -241 -144.5 -454t-389.5 -338.5t-522 -125.5
q-205 0 -364 75t-246 214t-87 317q0 71 29 213h512q-25 -83 -25 -110q0 -110 84 -172t228 -62q174 0 296 85.5t122 209.5q0 68 -42 117t-155 113q-33 22 -45 28l-483 295q-287 173 -287 434q0 222 123 422q54 87 147 180q67 67 225 168q-41 110 -41 193q0 220 132.5 409
t360.5 299.5t495 110.5q189 0 330 -65t214.5 -186.5t73.5 -284.5q0 -88 -16 -197zM1221 1688q-234 -152 -234 -287q0 -38 21 -78q18 -27 32 -41q41 -41 99 -74q8 -4 18 -11t35 -21l479 -283q234 130 234 295q0 39 -25 78q-19 32 -47.5 53t-136.5 86z" />
    <glyph glyph-name="c149" unicode="&#x2022;" horiz-adv-x="2335" 
d="M2093 1233q0 -182 -87.5 -336t-238.5 -243t-329 -89q-177 0 -328 87.5t-239.5 239.5t-88.5 329q0 179 87.5 329.5t238.5 238t330 87.5q173 0 324.5 -87.5t241 -236.5t89.5 -319z" />
    <glyph glyph-name="c182" unicode="&#xb6;" horiz-adv-x="2335" 
d="M1991 2458l-795 -2958h-389l479 1782q-171 5 -278 53q-158 73 -247 214t-89 323q0 373 307 680q192 186 422 266q142 53 450 53h967l-901 -3371h-401l794 2958h-319z" />
    <glyph glyph-name="c174" unicode="&#xae;" horiz-adv-x="3637" 
d="M2187 -102q-423 0 -773.5 198t-552.5 542.5t-202 758.5q0 406 201 751.5t547 546.5t752 201q404 0 750.5 -200.5t547.5 -545t201 -749.5q0 -399 -200 -746t-540 -552t-731 -205zM2138 176q342 0 626.5 161.5t449.5 442.5t165 617q0 250 -95 474t-262.5 390.5t-391.5 261
t-471 94.5q-331 0 -612.5 -163t-445 -443.5t-163.5 -609.5q0 -247 94.5 -469t263 -394t386.5 -267t456 -95zM2511 1266l393 -684h-401l-361 684h-254v-684h-348v1618h782q320 0 443 -78q188 -113 188 -418q0 -214 -101.5 -314t-340.5 -124zM1888 1507h381q159 0 229 54
t70 180t-84 175.5t-301 49.5h-295v-459z" />
    <glyph glyph-name="c169" unicode="&#xa9;" horiz-adv-x="3637" 
d="M2171 -102q-423 0 -773.5 198t-552.5 542.5t-202 758.5q0 406 201 751.5t546.5 546.5t751.5 201q405 0 750.5 -200.5t547 -545t201.5 -749.5q0 -399 -200.5 -746.5t-540 -552t-729.5 -204.5zM2122 176q338 0 624.5 163t451.5 444.5t165 613.5q0 327 -164.5 609
t-446.5 446.5t-610 164.5q-331 0 -612 -163t-444.5 -443.5t-163.5 -609.5q0 -328 163.5 -610t439.5 -448.5t597 -166.5zM2568 1126h340q-29 -178 -124 -309.5t-243.5 -199.5t-340.5 -68q-235 0 -424 110.5t-294.5 309.5t-105.5 448t103 444.5t289.5 303.5t426.5 108
q286 0 467.5 -142.5t245.5 -422.5h-340q-69 295 -377 295q-138 0 -246 -73t-168.5 -205.5t-60.5 -299.5q0 -257 141.5 -431.5t346.5 -174.5q147 0 246.5 83t117.5 224z" />
    <glyph glyph-name="c180" unicode="&#xb4;" horiz-adv-x="1634" 
d="M1122 2384l-98 360l1012 516l98 -405z" />
    <glyph glyph-name="c221" unicode="&#xdd;" horiz-adv-x="3035" 
d="M2847 1696q-22 230 -113 391t-244.5 243.5t-359.5 82.5q-217 0 -451 -99q-115 -48 -198 -101t-207 -157h-606q123 166 206.5 254.5t198.5 175.5q563 443 1204 443q240 0 446 -82t356.5 -231t233.5 -353t83 -444q0 -490 -328 -963q-142 -208 -329 -380t-403.5 -294.5
t-447 -187t-454.5 -64.5q-279 0 -520 113.5t-402 316.5q-66 93 -100 175t-72 247h618q89 -112 147 -164t148 -98q156 -74 336 -74q212 0 417.5 87.5t384.5 252t316 394.5h-1417l135 516h1422z" />
    <glyph glyph-name="c219" unicode="&#xdb;" horiz-adv-x="3351" 
d="M1266 1749h188q539 0 746 -188q196 -177 196 -463q0 -200 -93 -396.5t-267 -357.5q-134 -124 -286 -199.5t-339 -110t-428 -34.5h-717l770 2875h533zM2552 0l770 2875h532l-770 -2875h-532zM934 516h225q211 0 368 58t240.5 165.5t83.5 251.5q0 91 -57 148
q-58 69 -160 94q-76 20 -266 20h-233z" />
    <glyph glyph-name="c177" unicode="&#xb1;" horiz-adv-x="2335" 
d="M1139 1683v533h450v-533h754v-450h-754v-557h-450v557h-758v450h758zM381 0v451h1962v-451h-1962z" />
    <glyph glyph-name="c178" unicode="&#xb2;" horiz-adv-x="3629" 
d="M3383 954v-462l-2437 1007v418l2437 1008v-459l-1847 -762zM946 291h2437v-414h-2437v414z" />
    <glyph glyph-name="c179" unicode="&#xb3;" horiz-adv-x="3629" 
d="M3547 1917v-418l-2437 -1007v462l1839 750l-1839 762v459zM1110 291h2437v-414h-2437v414z" />
    <glyph glyph-name="c165" unicode="&#xa5;" 
d="M811 0l193 725h-746l94 340h742l-107 414h-553l94 344h369l-262 1052h582l270 -1327l983 1327h594l-832 -1052h369l-94 -344h-545l-336 -414h741l-90 -340h-741l-193 -725h-532z" />
    <glyph glyph-name="c253" unicode="&#xfd;" horiz-adv-x="2458" 
d="M1073 1421h-577q86 142 145 217t154 160q215 189 473.5 293t509.5 104q245 0 440.5 -107t305.5 -296t110 -424q0 -270 -123 -529t-337 -465.5t-483.5 -325t-551.5 -118.5q-230 0 -421.5 101.5t-307.5 283.5q-51 84 -73.5 159.5t-37.5 217.5h578q106 -262 405 -262
q139 0 284.5 57.5t256.5 153.5t155 207h-893l123 450h893q0 11 2 22l2 11q0 154 -138.5 259.5t-336.5 105.5q-210 0 -385 -115q-69 -46 -172 -160z" />
    <glyph glyph-name="c251" unicode="&#xfb;" horiz-adv-x="2826" 
d="M1077 1405h299q392 0 553 -143q144 -131 144 -336q0 -183 -79.5 -364t-215.5 -308q-143 -134 -327.5 -194t-451.5 -60h-790l569 2126h496zM2114 0l569 2126h512l-569 -2126h-512zM823 455h230h143q81 0 168 41q80 38 128 111.5t48 158.5q0 105 -72.5 142.5t-275.5 37.5
h-234z" />
    <glyph glyph-name="c172" unicode="&#xac;" horiz-adv-x="2335" 
d="M1888 709l180 671h-1499l123 459h1958l-303 -1130h-459z" />
    <glyph glyph-name="c171" unicode="&#xab;" horiz-adv-x="1790" 
d="M1651 528l-406 512l107 394l676 503l-127 -479l-320 -221l197 -229zM823 528l-405 512l106 394l676 503l-127 -479l-323 -221l200 -229z" />
    <glyph glyph-name="c187" unicode="&#xbb;" horiz-adv-x="1790" 
d="M426 528l127 480l328 229l-205 221l127 479l405 -503l-106 -394zM1253 528l131 480l324 229l-205 221l127 479l406 -503l-103 -394z" />
    <glyph glyph-name="c160" unicode="&#xa0;" horiz-adv-x="1024" 
 />
    <glyph glyph-name="c201" unicode="&#xc9;" horiz-adv-x="2646" 
d="M799 0h-533l770 2875h533l-565 -2101l65 98l1659 2003h532l-770 -2875h-532l561 2093l-61 -86zM1647 3400h385q25 -189 204 -189q186 0 308 189h389q-71 -151 -131 -226q-236 -303 -660 -303q-230 0 -367 110t-137 296q0 35 9 123z" />
    <glyph glyph-name="c202" unicode="&#xca;" horiz-adv-x="2413" 
d="M266 0l770 2875h533l-336 -1245l1229 1245h639l-1401 -1298l631 -1577h-639l-512 1430l-381 -1430h-533z" />
    <glyph glyph-name="c203" unicode="&#xcb;" horiz-adv-x="2617" 
d="M1864 2032l16 102l-41 -102l-1241 -2032h-573l1851 2875h405l312 -2875h-574z" />
    <glyph glyph-name="c173" unicode="&#xad;" horiz-adv-x="2048" 
d="M328 1008v458h2048v-458h-2048z" />
    <glyph glyph-name="c166" unicode="&#xa6;" horiz-adv-x="4096" 
d="M336 1032v459h4096v-459h-4096z" />
    <glyph glyph-name="c147" unicode="&#x201c;" horiz-adv-x="1868" 
d="M-74 -537l492 1078h516l-492 -1078h-516zM729 -537l492 1078h516l-488 -1078h-520z" />
    <glyph glyph-name="c148" unicode="&#x201d;" horiz-adv-x="1868" 
d="M627 1843l491 1073h520l-491 -1073h-520zM1434 1843l491 1073h516l-491 -1073h-516z" />
    <glyph glyph-name="c145" unicode="&#x2018;" horiz-adv-x="1090" 
d="M1430 1843h-517l82 1073h521z" />
    <glyph glyph-name="c146" unicode="&#x2019;" horiz-adv-x="1090" 
d="M635 1843l491 1073h521l-492 -1073h-520z" />
    <glyph glyph-name="c186" unicode="&#xba;" horiz-adv-x="2302" 
d="M2159 2126h512l-570 -2126h-471l62 225q-73 -86 -164 -151q-207 -144 -467 -144q-190 0 -346 77.5t-245 213t-89 299.5q0 123 74 406l323 1200h508l-278 -1045q-62 -240 -62 -340q0 -148 86.5 -229.5t241.5 -81.5q431 0 606 651zM1143 2736l282 340l721 -524l-254 -303z
" />
    <glyph glyph-name="c170" unicode="&#xaa;" horiz-adv-x="2646" 
d="M799 0h-533l770 2875h533l-565 -2101l65 98l1659 2003h532l-770 -2875h-532l561 2093l-61 -86zM1602 3265l282 339l721 -524l-254 -299z" />
    <glyph glyph-name="c164" unicode="&#xa4;" 
d="M340 885l217 168q-45 179 -45 266q0 168 86 381q19 49 57 119q61 111 172 241l-127 168l394 312l123 -168q159 74 290 110q133 37 258 37q120 0 254 -41q101 -28 222 -106l217 168l217 -312l-217 -168q45 -142 45 -258q0 -197 -86 -401q-20 -48 -66 -131
q-65 -109 -164 -217l127 -168l-381 -307l-127 167q-160 -80 -307 -118q-129 -33 -242 -33q-128 0 -262 41q-106 37 -213 110l-217 -167zM1380 1077q158 6 303.5 93t232.5 225t87 284q0 104 -45.5 185t-128 126.5t-187.5 45.5q-156 0 -301.5 -87t-235 -227t-89.5 -288
q0 -154 101.5 -255.5t254.5 -101.5h8z" />
    <glyph glyph-name="c185" unicode="&#xb9;" horiz-adv-x="4387" 
d="M266 0l770 2875h598l672 -2052v-98l578 2150h483l-770 -2875h-594l-676 2040l-8 98l-574 -2138h-479zM4186 2277q162 0 286 -65t191.5 -183.5t67.5 -271.5q0 -230 -152 -450q-135 -196 -342 -313t-415 -117q-240 0 -388.5 142.5t-148.5 373.5q0 184 96 366t264 314
q263 204 541 204zM3113 164l106 401h1078l-107 -401h-1077zM4084 1843q-88 0 -170.5 -47.5t-132.5 -125.5t-50 -163q0 -84 58 -142t143 -58q107 0 209 77q143 111 143 263q0 87 -55.5 141.5t-144.5 54.5z" />
    <glyph glyph-name="c183" unicode="&#xb7;" horiz-adv-x="1868" 
d="M2224 1843h-516l86 1073h516zM1421 1843h-516l82 1073h520z" />
    <glyph glyph-name="c204" unicode="&#xcc;" horiz-adv-x="3502" 
d="M266 0l770 2875h725l176 -2105l-16 -172l78 172l1315 2105h725l-770 -2875h-533l578 2154l-1323 -2154h-451l-164 2154l-577 -2154h-533z" />
    <glyph glyph-name="c205" unicode="&#xcd;" horiz-adv-x="2646" 
d="M266 0l770 2875h533l-312 -1151h1029l311 1151h532l-770 -2875h-536l323 1204h-1024l-323 -1204h-533z" />
    <glyph glyph-name="c207" unicode="&#xcf;" horiz-adv-x="2646" 
d="M266 0l770 2875h2093l-770 -2875h-536l635 2359h-1028l-631 -2359h-533z" />
    <glyph glyph-name="c168" unicode="&#xa8;" horiz-adv-x="2023" 
d="M266 0l770 2875h1544l-139 -516h-1011l-177 -663h967l-139 -516h-967l-180 -664h1012l-136 -516h-1544zM1167 3060l140 516h516l-140 -516h-516zM1987 3060l135 516h520l-139 -516h-516z" />
    <glyph glyph-name="c210" unicode="&#xd2;" horiz-adv-x="1655" 
d="M557 0l631 2359h-529l140 516h1597l-139 -516h-537l-630 -2359h-533z" />
    <glyph glyph-name="c211" unicode="&#xd3;" horiz-adv-x="2413" 
d="M434 0l746 954l-398 1921h586l229 -1413l1024 1413h586l-2187 -2875h-586z" />
    <glyph glyph-name="c212" unicode="&#xd4;" horiz-adv-x="3727" 
d="M2449 3113h463l-78 -291h66q340 -16 587 -143.5t377 -352.5t130 -528q0 -458 -252.5 -850t-691.5 -630.5t-965 -260.5l-82 -315h-467l86 315q-564 29 -861.5 286t-297.5 718q0 184 52.5 375.5t151.5 372.5t238.5 340.5t315.5 287.5q188 139 419.5 237t436.5 128
q112 16 295 20zM1745 487l504 1885q-242 -27 -414.5 -92.5t-343.5 -198.5q-150 -120 -257 -264.5t-162.5 -299.5t-55.5 -313q0 -197 88.5 -352t252.5 -249.5t388 -115.5zM2208 487q242 18 465 121.5t398.5 272t274.5 373.5t99 417q0 231 -131 410q-91 126 -206 185t-347 97
l-49 9z" />
    <glyph glyph-name="c214" unicode="&#xd6;" horiz-adv-x="2748" 
d="M3129 2875l-635 -2359h238l-295 -1085h-504l152 569h-1819l770 2875h533l-635 -2359h1028l635 2359h532z" />
    <glyph glyph-name="c215" unicode="&#xd7;" horiz-adv-x="2544" 
d="M2257 0h-533l328 1221l-49 -50q-117 -115 -282 -180t-341 -65q-207 0 -352 74t-220 217.5t-75 343.5q0 195 82 487l221 827h533l-221 -827q-62 -211 -62 -299q0 -156 98 -246t267 -90q244 0 430 205q65 75 105 164.5t87 265.5l221 827h533z" />
    <glyph glyph-name="c216" unicode="&#xd8;" horiz-adv-x="3682" 
d="M3420 0h-3154l770 2875h533l-635 -2359h778l635 2359h532l-630 -2359h778l631 2359h532z" />
    <glyph glyph-name="c217" unicode="&#xd9;" horiz-adv-x="3813" 
d="M934 516h778l635 2359h532l-630 -2359h778l631 2359h532l-631 -2359h234l-291 -1085h-508l152 569h-2880l770 2875h533z" />
    <glyph glyph-name="c218" unicode="&#xda;" horiz-adv-x="2585" 
d="M1221 2359h-516l139 516h1052l-303 -1126h189q534 0 745 -188q197 -178 197 -463q0 -201 -94.5 -397t-270.5 -357q-130 -122 -282.5 -198.5t-339.5 -111t-426 -34.5h-721zM1262 516h221q213 0 370.5 58t241.5 165.5t84 251.5q0 91 -57 148q-58 69 -160 94q-76 20 -270 20
h-234z" />
    <glyph glyph-name="c220" unicode="&#xdc;" horiz-adv-x="2257" 
d="M1266 1749h188q539 0 746 -188q196 -177 196 -463q0 -200 -93 -396.5t-267 -357.5q-134 -124 -286 -199.5t-339 -110t-428 -34.5h-717l770 2875h533zM934 516h225q211 0 368 58t240.5 165.5t83.5 251.5q0 91 -57 148q-58 69 -160 94q-76 20 -266 20h-233z" />
    <glyph glyph-name="c222" unicode="&#xde;" horiz-adv-x="4272" 
d="M1257 1724h357q116 255 310.5 478t434 384.5t510 252t535.5 90.5q254 0 465 -79.5t364 -228t235.5 -352.5t82.5 -450q0 -496 -316 -963q-140 -205 -329.5 -377.5t-403.5 -294t-446 -188t-455 -66.5q-253 0 -464 78.5t-365 227t-236 351.5t-82 445q0 86 4 131v41h-336
l-323 -1204h-533l770 2875h533zM3281 2413q-240 0 -472 -102t-414 -277.5t-287 -397.5t-105 -456q0 -210 94 -377.5t260.5 -262t374.5 -94.5q389 0 754 287q161 126 277 284.5t177.5 331t61.5 347.5q0 204 -93 368t-258.5 256.5t-369.5 92.5z" />
    <glyph glyph-name="c223" unicode="&#xdf;" horiz-adv-x="2253" 
d="M2736 2875l-770 -2875h-532l364 1360l-1167 -1360h-631l1184 1319q-570 36 -570 475q0 185 79.5 382.5t211.5 342.5q128 140 283 217q166 88 324.5 113.5t547.5 25.5h676zM1864 1606l217 811h-185h-24q-115 0 -160 -4q-197 -7 -336 -99q-102 -69 -159.5 -184.5
t-57.5 -241.5q0 -97 58 -172q43 -50 118 -78q94 -32 348 -32h181z" />
    <glyph glyph-name="c191" unicode="&#xbf;" horiz-adv-x="2101" 
d="M1077 2949h565l148 -250l274 250h566l-713 -536h-406z" />
  </font>
</defs>
</svg>
