<?xml version="1.0" standalone="no"?>
<!DOCTYPE svg PUBLIC "-//W3C//DTD SVG 1.1//EN" "http://www.w3.org/Graphics/SVG/1.1/DTD/svg11.dtd" >
<svg xmlns="http://www.w3.org/2000/svg" xmlns:xlink="http://www.w3.org/1999/xlink" version="1.1">
<metadata>
Created by FontForge 20190801 at Fri Jan  1 00:00:00 1904
 By root
Eurotype
</metadata>
<defs>
<font id="AvantiItalic" horiz-adv-x="2154" >
  <font-face 
    font-family="Avanti"
    font-weight="400"
    font-style="italic"
    font-stretch="normal"
    units-per-em="4096"
    panose-1="2 11 114 0 0 0 0 0 0 0"
    ascent="3276"
    descent="-820"
    x-height="2130"
    cap-height="2875"
    bbox="-377 -983 4661 3535"
    underline-thickness="55"
    underline-position="-118"
    unicode-range="U+0020-2022"
  />
<missing-glyph horiz-adv-x="3072" 
d="M512 0v2560h2048v-2560h-2048zM2494 66v2428h-1916v-2428h1916z" />
    <glyph glyph-name=".notdef" horiz-adv-x="3072" 
d="M512 0v2560h2048v-2560h-2048zM2494 66v2428h-1916v-2428h1916z" />
    <glyph glyph-name=".null" horiz-adv-x="0" 
 />
    <glyph glyph-name="nonmarkingreturn" horiz-adv-x="0" 
 />
    <glyph glyph-name="c32" unicode=" " horiz-adv-x="1077" 
 />
    <glyph glyph-name="c33" unicode="!" horiz-adv-x="1147" 
d="M430 0l131 492h291l-131 -492h-291zM631 750l569 2125h291l-569 -2125h-291z" />
    <glyph glyph-name="c34" unicode="&#x22;" horiz-adv-x="1380" 
d="M889 1995v880h291v-880h-291zM1409 1995v880h287v-880h-287z" />
    <glyph glyph-name="c35" unicode="#" horiz-adv-x="2163" 
d="M2585 2712l-340 -762h360l-70 -267h-413l-303 -675h409l-69 -267h-459l-369 -819h-282l368 819h-487l-369 -819h-282l368 819h-393l70 267h446l299 675h-418l70 267h471l344 762h283l-344 -762h487l340 762h283zM1839 1683h-483l-303 -675h483z" />
    <glyph glyph-name="c36" unicode="$" 
d="M897 -209l86 324q-149 29 -242 94q-249 166 -249 459q0 81 24 168l12 49h271q-21 -86 -21 -148q0 -167 109 -272t284 -105q169 0 324.5 92.5t249.5 243.5t94 316q0 151 -88.5 239t-312.5 158q-35 10 -61 19.5t-38 13.5q-135 44 -217 102q-196 135 -196 402q0 233 139 442
q138 226 381 344q115 57 262 90l86 324h254l-86 -324q463 -91 463 -524q0 -78 -21 -184h-274q16 76 16 127q0 151 -99.5 241t-268.5 90q-149 0 -281.5 -80t-210.5 -215.5t-78 -289.5q0 -108 58 -172q48 -51 100.5 -77.5t202.5 -74.5q226 -73 340 -152q213 -146 213 -442
q0 -172 -69 -334.5t-192 -295.5t-285.5 -218t-338.5 -106l-86 -324h-254z" />
    <glyph glyph-name="c37" unicode="%" horiz-adv-x="3015" 
d="M705 0l2060 2875h282l-2064 -2875h-278zM1507 2920q160 0 278 -60.5t182.5 -173t64.5 -261.5q0 -219 -148 -438q-127 -191 -331.5 -308.5t-409.5 -117.5q-223 0 -367.5 145.5t-144.5 366.5q0 212 124.5 408.5t329.5 317.5t422 121zM2593 1315q157 0 276 -63t183.5 -180.5
t64.5 -268.5q0 -210 -127 -409.5t-331.5 -321t-422.5 -121.5q-230 0 -377 140t-147 360q0 177 97.5 357.5t263.5 309.5q248 197 520 197zM1450 2646q-140 0 -264.5 -69.5t-198.5 -187.5t-74 -251q0 -132 86.5 -217.5t217.5 -85.5q165 0 311 115q98 79 157.5 190t59.5 219
q0 126 -83 206.5t-212 80.5zM2540 1040q-140 0 -266 -73.5t-202.5 -195t-76.5 -255.5q0 -126 88 -208.5t223 -82.5q131 0 253.5 72.5t198.5 191.5t76 248t-84.5 216t-209.5 87z" />
    <glyph glyph-name="c38" unicode="&#x26;" horiz-adv-x="2945" 
d="M2843 1868h323l-807 -1016l541 -709l-258 -192l-488 639q-140 -175 -223 -258.5t-190 -159.5q-302 -221 -635 -221q-203 0 -360.5 82.5t-244.5 231.5t-87 341q0 259 155 512q107 156 246 266q177 157 508 312q-104 144 -139 241q-29 80 -29 181q0 201 125 386.5
t329.5 300.5t422.5 115q153 0 275.5 -66.5t191.5 -184t69 -261.5q0 -213 -127 -385q-87 -117 -209 -208q-147 -119 -422 -222l398 -536zM1483 1475l-140 -66q-248 -113 -372 -221q-262 -225 -262 -520q0 -197 125.5 -320t324.5 -123q231 0 434 152q103 75 183 159t219 263z
M1651 1806q160 54 241 92.5t168 104.5q102 74 159.5 168t57.5 188q0 121 -91 204t-224 83q-129 0 -247.5 -65t-191.5 -169.5t-73 -216.5q0 -83 43 -166t158 -223z" />
    <glyph glyph-name="c39" unicode="'" horiz-adv-x="864" 
d="M922 2003v881h290v-881h-290z" />
    <glyph glyph-name="c40" unicode="(" horiz-adv-x="1434" 
d="M2073 2875l-66 -249q-180 -100 -272 -162.5t-203 -161.5q-177 -161 -319 -347.5t-240.5 -386t-150.5 -406.5t-52 -404q0 -373 172 -680q58 -99 116 -162.5t179 -157.5l-66 -254q-79 29 -135 58q-147 80 -295 282q-266 380 -266 865q0 322 129.5 668t356 652.5t515.5 530
t597 315.5z" />
    <glyph glyph-name="c41" unicode=")" horiz-adv-x="1434" 
d="M0 -496l70 254q175 99 262 158t205 162q178 161 322 350t242 387t150 405.5t52 405.5q0 365 -168 672q-53 96 -114.5 163.5t-184.5 159.5l65 254q97 -35 152 -65q157 -88 290 -279q259 -374 259 -843q0 -161 -31 -329t-95.5 -344t-151 -334t-202.5 -312
q-203 -270 -512 -525q-147 -114 -282 -196q-134 -77 -328 -144z" />
    <glyph glyph-name="c42" unicode="*" horiz-adv-x="1655" 
d="M2060 2462l-53 -197h-389l115 -344l-209 -106l-115 348l-299 -348l-156 106l303 344h-401l53 197h402l-119 352l217 106l107 -348l307 348l147 -106l-299 -352h389z" />
    <glyph glyph-name="c43" unicode="+" horiz-adv-x="2359" 
d="M1327 1327v827h295v-827h832v-295h-832v-839h-295v839h-835v295h835z" />
    <glyph glyph-name="c44" unicode="," horiz-adv-x="1077" 
d="M283 -262l544 754h287l-541 -754h-290z" />
    <glyph glyph-name="c45" unicode="-" horiz-adv-x="1290" 
d="M422 1319h1057v-258h-1057v258z" />
    <glyph glyph-name="c46" unicode="." horiz-adv-x="1077" 
d="M393 0l131 492h287l-131 -492h-287z" />
    <glyph glyph-name="c47" unicode="/" horiz-adv-x="1700" 
d="M20 -500l2032 3375h262l-2035 -3375h-259z" />
    <glyph glyph-name="c48" unicode="0" 
d="M2335 1094q-75 -286 -170 -463t-252 -328q-372 -352 -844 -352q-216 0 -385 84t-260.5 238.5t-91.5 353.5q0 181 78 467l200 745q67 256 163.5 424t258.5 317q377 340 832 340q218 0 383.5 -86t255.5 -242.5t90 -363.5q0 -165 -58 -389zM709 1139q-78 -281 -78 -447
q0 -218 134.5 -342.5t373.5 -124.5q193 0 366.5 83.5t296.5 236.5q148 181 258 594l168 635q66 246 66 401q0 209 -137 340t-359 131q-181 0 -370 -91.5t-306 -236.5q-142 -171 -241 -544z" />
    <glyph glyph-name="c49" unicode="1" 
d="M1090 0l700 2613h-487l69 262h774l-770 -2875h-286z" />
    <glyph glyph-name="c50" unicode="2" 
d="M127 0l70 258l1380 1057q229 175 350.5 287.5t194.5 220.5q127 182 127 372q0 198 -134.5 324.5t-349.5 126.5q-164 0 -331.5 -81.5t-282.5 -217.5q-124 -146 -193 -401h-286q65 241 164 397q113 177 276.5 308t356 200t395.5 69q201 0 356 -82.5t241.5 -234t86.5 -346.5
q0 -78 -29 -205q-52 -188 -160 -344q-91 -131 -226.5 -256t-420.5 -342l-1118 -848h1429l-69 -262h-1827z" />
    <glyph glyph-name="c51" unicode="3" 
d="M1188 2159h-287q65 200 148 323q96 136 222 235t271 151t293 52q165 0 290.5 -66.5t194 -187t68.5 -278.5q0 -184 -86 -356q-36 -71 -74 -119q-59 -77 -121 -131t-186 -135q133 -82 193 -172q110 -167 110 -381q0 -291 -192 -574q-118 -171 -284.5 -300.5t-354.5 -199
t-377 -69.5q-200 0 -357 87t-244 244t-87 357q0 84 41 258h286q-24 -133 -24 -213q0 -194 131.5 -326.5t322.5 -132.5q156 0 308.5 68t273 183.5t189.5 261.5t69 294q0 157 -76.5 274t-210.5 164q-88 37 -307 37q-41 0 -69 4l65 254l98 -8h37q166 0 311.5 79t232.5 212.5
t87 282.5q0 141 -95 228t-249 87q-190 0 -337.5 -129t-223.5 -358z" />
    <glyph glyph-name="c52" unicode="4" 
d="M1503 0l139 524h-1454l70 262l1950 2089h352l-561 -2089h262l-70 -262h-262l-139 -524h-287zM1712 786l455 1692l-1573 -1692h1118z" />
    <glyph glyph-name="c53" unicode="5" 
d="M647 1458l639 1417h1303l-70 -262h-1069l-356 -790q166 75 278 102q135 33 246 33q213 0 379 -93.5t258 -261.5t92 -382q0 -342 -225 -668q-125 -184 -296 -320t-365 -209t-388 -73q-215 0 -388.5 92.5t-269.5 258t-96 374.5q0 78 25 225h287q-17 -85 -17 -160
q0 -224 146 -370t370 -146q231 0 444 132t343.5 347t130.5 447q0 237 -142 382.5t-374 145.5q-158 0 -311 -65q-173 -72 -365 -238z" />
    <glyph glyph-name="c54" unicode="6" 
d="M1917 2875h336l-950 -1011q181 90 360 90q200 0 356 -94t242 -264t86 -388q0 -415 -340 -798q-194 -218 -441 -338.5t-501 -120.5q-218 0 -389 92.5t-266 260.5t-95 380q0 291 168 586q63 112 164 234.5t316 350.5zM1536 1675q-177 0 -342.5 -73.5t-297 -203.5
t-207 -297.5t-75.5 -342.5q0 -156 64.5 -277.5t181.5 -188.5t266 -67q228 0 442.5 132.5t347 345.5t132.5 440q0 155 -65.5 275.5t-182 188.5t-264.5 68z" />
    <glyph glyph-name="c55" unicode="7" 
d="M418 0l1884 2613h-1352l70 262h1655l-70 -262l-1876 -2613h-311z" />
    <glyph glyph-name="c56" unicode="8" 
d="M1081 1606q-115 78 -162 165t-47 220q0 235 141 451t371.5 347t483.5 131q173 0 303.5 -68.5t202 -195.5t71.5 -293q0 -246 -136.5 -447.5t-379.5 -309.5q139 -80 209 -176q111 -170 111 -373q0 -271 -185 -545q-173 -251 -450.5 -406t-556.5 -155q-204 0 -363.5 84.5
t-248.5 237t-89 345.5q0 283 193 558q117 171 278 294q99 75 254 136zM1470 1450q-204 0 -395 -110.5t-307.5 -291t-116.5 -376.5q0 -127 60.5 -230t168 -160t242.5 -57q206 0 399 110t311 291t118 378q0 194 -136.5 320t-343.5 126zM1806 2646q-163 0 -309.5 -79.5
t-233.5 -211.5t-87 -282q0 -153 101 -248.5t263 -95.5q195 0 373 139q115 91 178 203.5t63 230.5q0 149 -98.5 246.5t-249.5 97.5z" />
    <glyph glyph-name="c57" unicode="9" 
d="M1008 0h-336l950 1008q-179 -90 -360 -90q-202 0 -357.5 93.5t-241 261.5t-85.5 386q0 419 340 803q191 217 440.5 337.5t501.5 120.5q218 0 388.5 -92.5t265.5 -260.5t95 -380q0 -290 -168 -581q-66 -116 -158.5 -229.5t-320.5 -356.5zM1794 2646q-141 0 -283 -54.5
t-267 -154t-216 -233.5q-151 -228 -151 -463q0 -243 148 -390t392 -147q226 0 433 127.5t333.5 336.5t126.5 441q0 242 -142 389.5t-374 147.5z" />
    <glyph glyph-name="c58" unicode=":" horiz-adv-x="1077" 
d="M393 0l131 492h287l-131 -492h-287zM795 1495l131 487h286l-131 -487h-286z" />
    <glyph glyph-name="c59" unicode=";" horiz-adv-x="1077" 
d="M90 -262l541 754h291l-545 -754h-287zM901 1495l131 487h291l-135 -487h-287z" />
    <glyph glyph-name="c60" unicode="&#x3c;" horiz-adv-x="2359" 
d="M750 1171l1609 -745v-283l-1978 906v245l1978 906v-287z" />
    <glyph glyph-name="c61" unicode="=" horiz-adv-x="2359" 
d="M2470 1696v-291h-1962v291h1962zM2470 938v-291h-1962v291h1962z" />
    <glyph glyph-name="c62" unicode="&#x3e;" horiz-adv-x="2359" 
d="M598 385l1610 745l-1610 742v287l1978 -906v-245l-1978 -906v283z" />
    <glyph glyph-name="c63" unicode="?" horiz-adv-x="2298" 
d="M1028 0l131 492h287l-131 -492h-287zM1057 1978h-275l21 82q62 229 241 427.5t422.5 315.5t491.5 117q201 0 352 -77.5t233.5 -221.5t82.5 -335q0 -116 -33 -238q-59 -185 -172.5 -323t-368.5 -332q-188 -143 -274.5 -223t-140.5 -168t-121 -252h-287q60 207 151 340
q74 98 119 147q117 127 344 299q209 156 295 242q91 94 142 208.5t51 229.5q0 122 -60 221t-167 154t-240 55q-181 0 -347 -85t-287 -238.5t-173 -344.5z" />
    <glyph glyph-name="c64" unicode="@" horiz-adv-x="3949" 
d="M3109 1950h323l-643 -1090q-62 -102 -82 -147.5t-20 -85.5q0 -62 41.5 -96.5t110.5 -34.5q122 0 278 85.5t291 229.5q172 184 266 406.5t94 437.5q0 263 -139.5 475.5t-383.5 333.5t-542 121q-193 0 -401.5 -51.5t-408.5 -149t-382 -234.5q-239 -185 -424.5 -426
t-286 -499t-100.5 -492q0 -283 144.5 -509t403 -352t583.5 -126t807 127l37 -262q-472 -164 -922 -164q-404 0 -724 152t-498.5 425t-178.5 615q0 176 52 373t151.5 395t243.5 391q260 349 585 582q212 155 456.5 269t494 174.5t479.5 60.5q284 0 525.5 -83t418.5 -234
t274 -356t97 -446q0 -507 -402 -983q-469 -561 -1028 -561q-164 0 -256 67.5t-92 186.5q0 25 4 45q-111 -88 -168 -127q-226 -151 -463 -151q-145 0 -251 60.5t-163 174t-57 264.5q0 307 234 635q136 193 318 341.5t382.5 231.5t384.5 83q322 0 385 -340zM1892 492
q125 0 272 90t261 241q146 192 243 392.5t97 308.5q0 119 -75 188.5t-204 69.5q-286 0 -561 -307q-138 -153 -226.5 -342.5t-88.5 -329.5q0 -137 80 -224t202 -87z" />
    <glyph glyph-name="c65" unicode="A" horiz-adv-x="2879" 
d="M41 0l2011 2875h320l462 -2875h-311l-156 967h-1339l-676 -967h-311zM2138 2515v78l-41 -78l-885 -1290h1110z" />
    <glyph glyph-name="c192" unicode="&#xc0;" horiz-adv-x="2879" 
d="M41 0l2011 2875h320l462 -2875h-311l-156 967h-1339l-676 -967h-311zM2138 2515v78l-41 -78l-885 -1290h1110z" />
    <glyph glyph-name="c66" unicode="B" horiz-adv-x="2232" 
d="M295 0l770 2875h676q235 0 381 -31.5t237 -103.5q193 -143 193 -434q0 -272 -176 -496q-57 -72 -164 -151q-115 -76 -340 -123q199 -25 291 -90q204 -134 204 -410q0 -187 -90 -378.5t-249 -342.5q-210 -188 -476 -262q-190 -53 -581 -53h-676zM651 262h357q237 0 307 4
q179 14 323 82q189 88 307.5 262t118.5 361q0 127 -63.5 220.5t-177.5 135.5q-90 34 -205.5 45.5t-360.5 11.5h-303zM1024 1647h311q226 0 346.5 18.5t223.5 67.5q150 73 251 217.5t101 285.5q0 195 -135 291q-46 35 -131 62q-86 24 -373 24h-336z" />
    <glyph glyph-name="c67" unicode="C" horiz-adv-x="3162" 
d="M3555 2138h-319q-82 173 -168 250q-133 127 -309.5 192.5t-382.5 65.5q-238 0 -483 -94t-468 -271q-293 -232 -455.5 -533t-162.5 -609q0 -262 119.5 -471t332.5 -326t482 -117q277 0 577 135q167 75 277.5 151t283.5 239h316q-137 -163 -220 -240.5t-214 -173.5
q-544 -385 -1106 -385q-336 0 -599 137.5t-407.5 386t-144.5 569.5q0 349 161 689.5t438.5 609t627.5 423t714 154.5q278 0 518 -100t396 -279t196 -403z" />
    <glyph glyph-name="c209" unicode="&#xd1;" horiz-adv-x="3162" 
d="M3555 2138h-319q-82 173 -168 250q-133 127 -309.5 192.5t-382.5 65.5q-238 0 -483 -94t-468 -271q-293 -232 -455.5 -533t-162.5 -609q0 -262 119.5 -471t332.5 -326t482 -117q277 0 577 135q167 75 277.5 151t283.5 239h316q-137 -163 -220 -240.5t-214 -173.5
q-544 -385 -1106 -385q-336 0 -599 137.5t-407.5 386t-144.5 569.5q0 349 161 689.5t438.5 609t627.5 423t714 154.5q278 0 518 -100t396 -279t196 -403z" />
    <glyph glyph-name="c68" unicode="D" horiz-adv-x="2896" 
d="M295 0l770 2875h774q643 0 981 -277.5t338 -799.5q0 -203 -65 -414t-188.5 -412.5t-295.5 -373.5q-340 -346 -745 -487q-316 -111 -774 -111h-795zM651 262h373q265 0 454 23.5t342 79.5t314 159q164 107 301.5 250.5t231.5 303t145 333.5t51 342q0 362 -246 602
q-113 115 -282 180q-215 78 -680 78h-373z" />
    <glyph glyph-name="c69" unicode="E" horiz-adv-x="2085" 
d="M295 0l770 2875h1573l-70 -262h-1286l-270 -1007h1241l-70 -263h-1241l-291 -1081h1286l-69 -262h-1573z" />
    <glyph glyph-name="c197" unicode="&#xc5;" horiz-adv-x="2085" 
d="M295 0l770 2875h1573l-70 -262h-1286l-270 -1007h1241l-70 -263h-1241l-291 -1081h1286l-69 -262h-1573z" />
    <glyph glyph-name="c70" unicode="F" horiz-adv-x="1888" 
d="M295 0l770 2875h1458l-69 -262h-1172l-278 -1036h1130l-70 -262h-1130l-352 -1315h-287z" />
    <glyph glyph-name="c71" unicode="G" horiz-adv-x="3391" 
d="M1634 1327h1954q-77 -194 -132 -297.5t-142 -218.5q-144 -192 -333.5 -352.5t-400 -273t-436.5 -173.5t-444 -61q-345 0 -617 143.5t-423.5 401t-151.5 581.5q0 148 34.5 301.5t101.5 304.5t164 295.5t224 278.5q148 157 321.5 281.5t359.5 209t383.5 128.5t393.5 44
q480 0 783 -241q182 -145 291 -357q41 -83 61 -213h-328q-75 173 -155 258q-271 279 -717 279q-304 0 -596 -124.5t-524.5 -340.5t-367 -491.5t-134.5 -559.5q0 -258 122.5 -464.5t342 -323.5t493.5 -117q188 0 376 50t366.5 148t335.5 236q103 89 167 167t168 239h-1609z
" />
    <glyph glyph-name="c72" unicode="H" horiz-adv-x="2658" 
d="M295 0l770 2875h287l-336 -1265h1491l336 1265h290l-770 -2875h-290l364 1352h-1491l-364 -1352h-287z" />
    <glyph glyph-name="c73" unicode="I" horiz-adv-x="881" 
d="M295 0l770 2875h287l-770 -2875h-287z" />
    <glyph glyph-name="c74" unicode="J" horiz-adv-x="1876" 
d="M2351 2875l-557 -2064q0 -15 -12 -45q0 -1 -13 -41q-47 -137 -86 -233q-69 -138 -196 -259q-302 -282 -688 -282q-266 0 -432 152t-166 397q0 57 24 180h283q-8 -90 -8 -107q0 -154 109 -251t284 -97q147 0 283.5 78.5t216.5 208.5q69 116 139 381l528 1982h291z" />
    <glyph glyph-name="c75" unicode="K" horiz-adv-x="2327" 
d="M995 1491l1639 1384h356l-1622 -1376l934 -1499h-369zM1352 2875l-770 -2875h-287l770 2875h287z" />
    <glyph glyph-name="c76" unicode="L" horiz-adv-x="1798" 
d="M295 0l770 2875h287l-701 -2613h1192l-69 -262h-1479z" />
    <glyph glyph-name="c77" unicode="M" horiz-adv-x="3576" 
d="M1892 426l-4 -102l54 102l1667 2449h442l-770 -2875h-291l688 2556l-1769 -2556h-246l-393 2556l-688 -2556h-287l770 2875h442z" />
    <glyph glyph-name="c78" unicode="N" horiz-adv-x="2879" 
d="M295 0l770 2875h389l959 -2351l8 -61l643 2412h291l-770 -2875h-291l-1024 2511v45l-688 -2556h-287z" />
    <glyph glyph-name="c79" unicode="O" horiz-adv-x="3379" 
d="M2445 2920q264 0 487.5 -80t384 -228t247 -351.5t86.5 -445.5q0 -479 -320 -938q-193 -279 -462 -488t-579 -323.5t-610 -114.5q-337 0 -605.5 142t-419 395t-150.5 569q0 244 93 502t266.5 495t402.5 420q173 137 376.5 238.5t407.5 154.5t395 53zM2396 2650
q-238 0 -495.5 -98.5t-479.5 -274.5q-143 -113 -257.5 -249.5t-196 -288.5t-123 -307.5t-41.5 -305.5q0 -255 121.5 -462t337 -323t483.5 -116q299 0 588 126t520 345t364.5 494t133.5 559q0 255 -124 461.5t-342.5 323t-488.5 116.5z" />
    <glyph glyph-name="c206" unicode="&#xce;" horiz-adv-x="3379" 
d="M2445 2920q264 0 487.5 -80t384 -228t247 -351.5t86.5 -445.5q0 -479 -320 -938q-193 -279 -462 -488t-579 -323.5t-610 -114.5q-337 0 -605.5 142t-419 395t-150.5 569q0 244 93 502t266.5 495t402.5 420q173 137 376.5 238.5t407.5 154.5t395 53zM2396 2650
q-238 0 -495.5 -98.5t-479.5 -274.5q-143 -113 -257.5 -249.5t-196 -288.5t-123 -307.5t-41.5 -305.5q0 -255 121.5 -462t337 -323t483.5 -116q299 0 588 126t520 345t364.5 494t133.5 559q0 255 -124 461.5t-342.5 323t-488.5 116.5z" />
    <glyph glyph-name="c80" unicode="P" horiz-adv-x="2302" 
d="M295 0l770 2875h754q292 0 454.5 -34.5t274.5 -120.5q221 -167 221 -471q0 -140 -44 -279t-127 -266.5t-194 -228.5q-190 -169 -416 -242.5t-554 -73.5h-541l-311 -1159h-287zM963 1421h495q221 0 358 25.5t252 89.5q183 100 294.5 277.5t111.5 365.5q0 260 -238 373
q-80 38 -169 51.5t-261 13.5h-57l-49 -4h-45h-373z" />
    <glyph glyph-name="c208" unicode="&#xd0;" horiz-adv-x="2302" 
d="M295 0l770 2875h754q292 0 454.5 -34.5t274.5 -120.5q221 -167 221 -471q0 -140 -44 -279t-127 -266.5t-194 -228.5q-190 -169 -416 -242.5t-554 -73.5h-541l-311 -1159h-287zM963 1421h495q221 0 358 25.5t252 89.5q183 100 294.5 277.5t111.5 365.5q0 260 -238 373
q-80 38 -169 51.5t-261 13.5h-57l-49 -4h-45h-373z" />
    <glyph glyph-name="c81" unicode="Q" horiz-adv-x="3387" 
d="M3277 217l-74 -266h-33q-184 0 -315 57q-111 50 -229 185q-221 -116 -402 -168q-260 -74 -524 -74q-345 0 -619 140t-427.5 391.5t-153.5 566.5q0 353 164 692t449.5 606t648 420t741.5 153q269 0 490 -77.5t379 -222t242.5 -347.5t84.5 -450q0 -352 -156 -684
q-74 -149 -164 -271q-104 -152 -201 -252t-303 -264q170 -139 320 -139h16zM2462 397l-123 115q-82 82 -164 156q-114 91 -242 143q-285 111 -618 111q-128 0 -262 -25q-72 -12 -205 -57q91 -290 339 -452.5t599 -162.5q200 0 405 58q119 34 271 114zM795 1085
q204 61 327 78q153 29 324 29q353 0 643 -123q181 -79 311 -183.5t332 -332.5q155 124 240 211.5t166 206.5q262 366 262 766q0 267 -121.5 473.5t-341.5 321t-500 114.5q-268 0 -521.5 -90.5t-470 -258t-373 -392t-236.5 -492.5q-41 -144 -41 -270v-58z" />
    <glyph glyph-name="c82" unicode="R" horiz-adv-x="2363" 
d="M295 0l770 2875h684q319 0 492 -31t290 -108q271 -181 271 -541q0 -152 -53 -310t-153 -299t-237 -251q-145 -103 -262 -151q-98 -42 -186 -58.5t-244 -19.5l541 -1106h-361l-626 1303h86q231 0 360 12q137 6 287 65q156 62 282 179.5t196.5 265t70.5 297.5
q0 223 -152 356q-86 78 -215 106.5t-395 28.5h-459l-700 -2613h-287z" />
    <glyph glyph-name="c83" unicode="S" horiz-adv-x="1937" 
d="M303 807h307q-20 -87 -20 -148q0 -190 123 -312t315 -122q146 0 283 57t246.5 157t173 227.5t63.5 259.5q0 158 -106 278q-104 109 -394 189q-38 11 -63 18t-35 10q-138 39 -238 99q-233 139 -233 434q0 244 147 468.5t388 361t505 136.5q183 0 325 -71.5t220 -201.5
t78 -300q0 -49 -33 -205h-299q12 87 12 127q0 169 -109.5 273t-287.5 104q-163 0 -314 -91t-244 -237t-93 -303q0 -141 104.5 -226t378.5 -163q191 -52 285 -100t170 -133q135 -160 135 -389q0 -196 -93.5 -386.5t-256 -341t-367.5 -238t-418 -87.5q-202 0 -359.5 78.5
t-245 220t-87.5 323.5q0 63 37 234z" />
    <glyph glyph-name="c84" unicode="T" horiz-adv-x="1659" 
d="M688 0l701 2613h-660l70 262h1601l-69 -262h-656l-700 -2613h-287z" />
    <glyph glyph-name="c85" unicode="U" horiz-adv-x="2548" 
d="M1065 2875h287l-467 -1749q-62 -240 -62 -385q0 -155 62 -272.5t176 -180.5t266 -63q165 0 324.5 68.5t281.5 193.5q224 218 332 639l471 1749h287l-467 -1749q-77 -290 -175.5 -473.5t-258.5 -337.5q-178 -174 -403.5 -269t-456.5 -95q-226 0 -393.5 86t-258 246
t-90.5 372q0 188 78 471z" />
    <glyph glyph-name="c86" unicode="V" horiz-adv-x="2732" 
d="M1225 0l-414 2875h311l336 -2519l1688 2519h315l-1962 -2875h-274z" />
    <glyph glyph-name="c87" unicode="W" horiz-adv-x="3736" 
d="M856 0l-45 2875h299l33 -2506l1360 2506h270l20 -2502l1373 2502h299l-1590 -2875h-376v2359l-1266 -2359h-377z" />
    <glyph glyph-name="c88" unicode="X" horiz-adv-x="2367" 
d="M33 0l1368 1470l-541 1405h336l446 -1167l1074 1167h336l-1307 -1405l594 -1470h-340l-479 1249l-1151 -1249h-336z" />
    <glyph glyph-name="c213" unicode="&#xd5;" horiz-adv-x="2367" 
d="M33 0l1368 1470l-541 1405h336l446 -1167l1074 1167h336l-1307 -1405l594 -1470h-340l-479 1249l-1151 -1249h-336z" />
    <glyph glyph-name="c89" unicode="Y" horiz-adv-x="2302" 
d="M1008 0l258 963l-488 1912h316l397 -1613l1262 1613h311l-1512 -1912l-258 -963h-286z" />
    <glyph glyph-name="c90" unicode="Z" horiz-adv-x="1868" 
d="M66 0l69 258l2044 2355h-1368l70 262h1691l-69 -262l-2040 -2351h1450l-70 -262h-1777z" />
    <glyph glyph-name="c91" unicode="[" horiz-adv-x="1262" 
d="M102 -782l963 3596h696l-69 -262h-410l-823 -3072h405l-69 -262h-693z" />
    <glyph glyph-name="c92" unicode="\" horiz-adv-x="2355" 
d="M1532 0l-434 2875h274l434 -2875h-274z" />
    <glyph glyph-name="c93" unicode="]" horiz-adv-x="1262" 
d="M868 2552l74 262h692l-962 -3596h-697l70 262h410l823 3072h-410z" />
    <glyph glyph-name="c94" unicode="^" horiz-adv-x="2359" 
d="M1434 2167h-250l655 753h225l263 -753h-250l-205 463z" />
    <glyph glyph-name="c95" unicode="_" horiz-adv-x="1946" 
d="M1946 -487h-1946v225h1946v-225z" />
    <glyph glyph-name="c96" unicode="`" horiz-adv-x="2048" 
d="M1573 3031l655 -422l-188 -225l-656 414z" />
    <glyph glyph-name="c97" unicode="a" horiz-adv-x="2658" 
d="M2982 2130l-569 -2130h-279l111 401q-141 -155 -242 -225q-320 -225 -709 -225q-383 0 -647 246q-131 119 -184 244t-53 313q0 267 121 525.5t330.5 460t476 318.5t546.5 117q395 0 598 -233q67 -68 115 -218l110 406h275zM1810 1901q-213 -7 -412.5 -96.5t-356.5 -239
t-246.5 -335.5t-89.5 -382q0 -269 186.5 -446t468.5 -177q270 0 523 151.5t409.5 397.5t156.5 508q0 179 -79.5 320t-222 220t-320.5 79h-17z" />
    <glyph glyph-name="c224" unicode="&#xe0;" horiz-adv-x="2658" 
d="M2982 2130l-569 -2130h-279l111 401q-141 -155 -242 -225q-320 -225 -709 -225q-383 0 -647 246q-131 119 -184 244t-53 313q0 267 121 525.5t330.5 460t476 318.5t546.5 117q395 0 598 -233q67 -68 115 -218l110 406h275zM1810 1901q-213 -7 -412.5 -96.5t-356.5 -239
t-246.5 -335.5t-89.5 -382q0 -269 186.5 -446t468.5 -177q270 0 523 151.5t409.5 397.5t156.5 508q0 179 -79.5 320t-222 220t-320.5 79h-17z" />
    <glyph glyph-name="c98" unicode="b" horiz-adv-x="2654" 
d="M246 0l770 2875h287l-308 -1142q110 131 205 200q159 118 345.5 180t379.5 62q257 0 461.5 -106t318 -295.5t113.5 -425.5q0 -208 -99 -444.5t-265 -420.5q-231 -258 -512 -395t-574 -137q-217 0 -389 65q-139 61 -254 168q-58 58 -111 181l-98 -365h-270zM1872 1901
q-213 0 -414.5 -87.5t-357.5 -240t-245 -347.5t-89 -403q0 -175 82.5 -311t230.5 -211.5t338 -75.5q274 0 530.5 152t414 400t157.5 513q0 175 -83 315t-230.5 218t-333.5 78z" />
    <glyph glyph-name="c99" unicode="c" horiz-adv-x="2519" 
d="M2208 623h319q-186 -237 -360 -369q-401 -303 -856 -303q-263 0 -469 103t-319 290t-113 430q0 262 122.5 514.5t337.5 454.5t486.5 317t552.5 115q227 0 418 -90.5t311 -257.5q87 -126 123 -344h-320q-55 141 -127 217q-195 201 -483 201q-287 0 -547 -149.5
t-417.5 -394.5t-157.5 -513q0 -279 179 -449t476 -170q213 0 426 90q111 51 194.5 112.5t223.5 195.5z" />
    <glyph glyph-name="c241" unicode="&#xf1;" horiz-adv-x="2519" 
d="M2208 623h319q-186 -237 -360 -369q-401 -303 -856 -303q-263 0 -469 103t-319 290t-113 430q0 262 122.5 514.5t337.5 454.5t486.5 317t552.5 115q227 0 418 -90.5t311 -257.5q87 -126 123 -344h-320q-55 141 -127 217q-195 201 -483 201q-287 0 -547 -149.5
t-417.5 -394.5t-157.5 -513q0 -279 179 -449t476 -170q213 0 426 90q111 51 194.5 112.5t223.5 195.5z" />
    <glyph glyph-name="c100" unicode="d" horiz-adv-x="2666" 
d="M3191 2875l-770 -2875h-275l107 389q-148 -139 -242.5 -208t-220.5 -124q-246 -106 -504 -106q-240 0 -442.5 106t-320 290.5t-117.5 402.5q0 363 208.5 692.5t551.5 531t718 201.5q373 0 590 -217q68 -63 131 -201l299 1118h287zM1352 225q259 0 512 144t413 381
q181 271 181 540q0 176 -83 315.5t-232.5 217.5t-336.5 78q-275 0 -529.5 -150t-411 -393t-156.5 -506q0 -275 180.5 -451t462.5 -176z" />
    <glyph glyph-name="c101" unicode="e" horiz-adv-x="2527" 
d="M2634 979h-1925q-17 -97 -17 -168q0 -248 183 -417t456 -169q359 0 672 238q110 88 221 229h299q-130 -187 -216 -276.5t-230 -190.5q-402 -274 -832 -274q-242 0 -432 103.5t-296.5 290t-106.5 421.5q0 265 119 518.5t328.5 456.5t469.5 318.5t533 115.5q236 0 428 -103
t299.5 -286.5t107.5 -409.5q0 -137 -61 -397zM786 1241h1622q5 37 5 94q0 148 -85.5 279t-229 209t-308.5 78q-200 0 -393.5 -81t-350.5 -229.5t-260 -349.5z" />
    <glyph glyph-name="c229" unicode="&#xe5;" horiz-adv-x="2527" 
d="M2634 979h-1925q-17 -97 -17 -168q0 -248 183 -417t456 -169q359 0 672 238q110 88 221 229h299q-130 -187 -216 -276.5t-230 -190.5q-402 -274 -832 -274q-242 0 -432 103.5t-296.5 290t-106.5 421.5q0 265 119 518.5t328.5 456.5t469.5 318.5t533 115.5q236 0 428 -103
t299.5 -286.5t107.5 -409.5q0 -137 -61 -397zM786 1241h1622q5 37 5 94q0 148 -85.5 279t-229 209t-308.5 78q-200 0 -393.5 -81t-350.5 -229.5t-260 -349.5z" />
    <glyph glyph-name="c102" unicode="f" horiz-adv-x="1221" 
d="M393 0l500 1868h-332l70 262h332q55 202 135 324q86 133 213 228t282.5 144t327.5 49h53l-69 -262h-54q-472 0 -589 -442l-13 -41h533l-74 -262h-528l-500 -1868h-287z" />
    <glyph glyph-name="c103" unicode="g" horiz-adv-x="2617" 
d="M2945 2130l-491 -1827q-52 -206 -119 -360q-97 -226 -340 -430q-198 -162 -446 -253t-484 -91q-244 0 -441.5 106t-304.5 295q-47 83 -65 158.5t-29 222.5h283q62 -208 156 -311q170 -197 483 -197q153 0 301.5 44t278.5 127t227 198q83 103 128.5 202t96.5 289l29 119
q-96 -135 -201 -217q-153 -118 -355 -186t-395 -68q-243 0 -438 103.5t-304 286t-109 413.5q0 264 117.5 521t320 460t460 321.5t523.5 118.5q398 0 610 -238q73 -79 119 -221l110 414h279zM1749 1901q-269 -10 -509.5 -160.5t-385.5 -394t-145 -506.5q0 -185 75.5 -325
t216.5 -215t330 -75q198 0 394.5 89t350 241t243 343t89.5 388q0 176 -81.5 316t-228 219.5t-329.5 79.5h-20z" />
    <glyph glyph-name="c104" unicode="h" horiz-adv-x="2372" 
d="M246 0l770 2875h287l-283 -1052q164 185 355.5 268.5t447.5 83.5q326 0 505 -158.5t179 -447.5q0 -153 -78 -447l-299 -1122h-291l303 1122q53 198 53 340q0 209 -126.5 324t-356.5 115q-174 0 -348 -74q-172 -72 -283 -189q-88 -88 -140 -195.5t-110 -320.5l-299 -1122
h-286z" />
    <glyph glyph-name="c105" unicode="i" horiz-adv-x="778" 
d="M246 0l569 2130h287l-570 -2130h-286zM885 2384l131 491h287l-132 -491h-286z" />
    <glyph glyph-name="c106" unicode="j" horiz-adv-x="791" 
d="M1114 2130l-516 -1937q-71 -247 -123 -373q-79 -191 -266 -344q-114 -97 -275 -164q-135 -52 -311 -57l78 278q134 17 202 40.5t130 74.5q92 73 153.5 197t120.5 348l520 1937h287zM897 2384l131 491h287l-131 -491h-287z" />
    <glyph glyph-name="c107" unicode="k" horiz-adv-x="1954" 
d="M532 0h-286l770 2875h287zM864 1102l1217 1024h336l-1213 -1016l705 -1110h-353z" />
    <glyph glyph-name="c108" unicode="l" horiz-adv-x="778" 
d="M246 0l770 2875h287l-771 -2875h-286z" />
    <glyph glyph-name="c109" unicode="m" horiz-adv-x="3650" 
d="M246 0l569 2130h270l-77 -303q164 185 328.5 262.5t396.5 77.5q255 0 390 -105t171 -333q180 236 375.5 337t459.5 101q318 0 489 -152t171 -438q0 -146 -58 -365l-327 -1212h-287l315 1188q54 185 54 307q0 198 -111 302t-323 104q-326 0 -549 -242q-77 -83 -118 -172.5
t-99 -298.5l-316 -1188h-291l328 1217q45 161 45 253q0 185 -125 308t-313 123q-303 0 -533 -230q-79 -76 -125.5 -173t-95.5 -281l-328 -1217h-286z" />
    <glyph glyph-name="c110" unicode="n" horiz-adv-x="2372" 
d="M246 0l569 2130h270l-86 -332q108 122 205 193q251 184 619 184q326 0 505 -158.5t179 -447.5q0 -153 -78 -447l-299 -1122h-291l303 1122q53 198 53 340q0 209 -126.5 324t-356.5 115q-174 0 -348 -74q-172 -72 -283 -189q-88 -88 -140 -195.5t-110 -320.5l-299 -1122
h-286z" />
    <glyph glyph-name="c111" unicode="o" horiz-adv-x="2548" 
d="M1843 2175q249 0 448 -105.5t310 -296t111 -430.5q0 -353 -242 -696q-142 -211 -339.5 -368.5t-422.5 -242.5t-442 -85q-188 0 -345 59.5t-273 170t-179 263t-63 330.5q0 185 71 382t202 375.5t308 319.5q194 152 423 238t433 86zM1790 1901q-281 -10 -531.5 -162
t-402 -394.5t-151.5 -508.5q0 -176 80.5 -315.5t224.5 -217.5t325 -78q202 0 396 88.5t351 245t246 349.5t89 395q0 251 -178.5 424.5t-436.5 173.5h-12z" />
    <glyph glyph-name="c238" unicode="&#xee;" horiz-adv-x="2548" 
d="M1843 2175q249 0 448 -105.5t310 -296t111 -430.5q0 -353 -242 -696q-142 -211 -339.5 -368.5t-422.5 -242.5t-442 -85q-188 0 -345 59.5t-273 170t-179 263t-63 330.5q0 185 71 382t202 375.5t308 319.5q194 152 423 238t433 86zM1790 1901q-281 -10 -531.5 -162
t-402 -394.5t-151.5 -508.5q0 -176 80.5 -315.5t224.5 -217.5t325 -78q202 0 396 88.5t351 245t246 349.5t89 395q0 251 -178.5 424.5t-436.5 173.5h-12z" />
    <glyph glyph-name="c112" unicode="p" horiz-adv-x="2654" 
d="M815 2130h270l-94 -369q110 120 205 181q350 233 758 233q236 0 434 -106t312 -290.5t114 -402.5q0 -274 -120.5 -531.5t-334.5 -461t-484 -318t-556 -114.5q-379 0 -582 242q-60 65 -98 204l-307 -1142h-287zM1405 225q293 10 549.5 157.5t408.5 387t152 508.5
q0 179 -81 321.5t-227 222t-331 79.5q-287 0 -544 -151t-411.5 -402.5t-154.5 -528.5q0 -251 180.5 -422.5t446.5 -171.5h12z" />
    <glyph glyph-name="c240" unicode="&#xf0;" horiz-adv-x="2654" 
d="M815 2130h270l-94 -369q110 120 205 181q350 233 758 233q236 0 434 -106t312 -290.5t114 -402.5q0 -274 -120.5 -531.5t-334.5 -461t-484 -318t-556 -114.5q-379 0 -582 242q-60 65 -98 204l-307 -1142h-287zM1405 225q293 10 549.5 157.5t408.5 387t152 508.5
q0 179 -81 321.5t-227 222t-331 79.5q-287 0 -544 -151t-411.5 -402.5t-154.5 -528.5q0 -251 180.5 -422.5t446.5 -171.5h12z" />
    <glyph glyph-name="c113" unicode="q" horiz-adv-x="2654" 
d="M2978 2130l-770 -2875h-287l307 1142q-122 -143 -209 -204q-154 -116 -344.5 -179t-380.5 -63q-258 0 -460 105t-315 293.5t-113 424.5q0 261 121.5 513.5t332 454t472 317.5t532.5 116q204 0 377 -70q154 -58 253 -163q60 -55 115 -181l98 369h271zM1352 225
q284 0 539.5 151t411 400.5t155.5 526.5q0 171 -83.5 308t-233 213.5t-335.5 76.5q-204 0 -404 -89t-356.5 -240.5t-248.5 -345t-92 -390.5q0 -175 83 -315t230.5 -218t333.5 -78z" />
    <glyph glyph-name="c114" unicode="r" horiz-adv-x="1171" 
d="M246 0l569 2130h270l-81 -307q94 117 163 168q100 79 209 118q133 51 344 66l-78 -283q-193 -21 -323 -86q-187 -102 -324 -266q-77 -102 -143 -348l-320 -1192h-286z" />
    <glyph glyph-name="c115" unicode="s" horiz-adv-x="1507" 
d="M238 627h286q-16 -72 -16 -111q0 -129 82 -210t213 -81q194 0 338.5 138t144.5 321q0 101 -61 168q-43 46 -94 73.5t-164 61.5q-176 60 -254 115q-164 113 -164 323q0 188 113 362t298 281t388 107q128 0 230.5 -56t161 -155t58.5 -223q0 -61 -20 -144h-287q12 61 12 86
q0 96 -70.5 157t-183.5 61q-102 0 -194 -54.5t-147.5 -145.5t-55.5 -190q0 -80 49 -135q43 -44 80.5 -63t161.5 -64q246 -86 350 -189t104 -265q0 -216 -126 -411t-334 -314t-432 -119q-220 0 -360 136t-140 351q0 70 33 189z" />
    <glyph glyph-name="c116" unicode="t" horiz-adv-x="1319" 
d="M492 0l499 1868h-446l73 262h443l201 745h286l-200 -745h495l-69 -262h-496l-500 -1868h-286z" />
    <glyph glyph-name="c117" unicode="u" horiz-adv-x="2367" 
d="M2691 2130l-569 -2130h-271l86 332q-104 -119 -204 -193q-243 -184 -619 -184q-326 0 -503 157t-177 445q0 176 74 451l303 1122h287l-303 -1122q-54 -222 -54 -340q0 -203 134 -321t358 -118q168 0 336 70.5t286 192.5q89 84 141 192.5t109 323.5l299 1122h287z" />
    <glyph glyph-name="c118" unicode="v" 
d="M926 0l-324 2130h311l263 -1765l1208 1765h311l-1470 -2130h-299z" />
    <glyph glyph-name="c119" unicode="w" horiz-adv-x="3232" 
d="M831 0l-233 2130h303l193 -1782l901 1520h237l82 -1520l1159 1782h304l-1381 -2130h-332l-73 1413l-828 -1413h-332z" />
    <glyph glyph-name="c120" unicode="x" horiz-adv-x="1868" 
d="M33 0l1016 1081l-447 1049h336l344 -823l786 823h336l-1011 -1049l442 -1081h-336l-336 852l-794 -852h-336z" />
    <glyph glyph-name="c245" unicode="&#xf5;" horiz-adv-x="1868" 
d="M33 0l1016 1081l-447 1049h336l344 -823l786 823h336l-1011 -1049l442 -1081h-336l-336 852l-794 -852h-336z" />
    <glyph glyph-name="c121" unicode="y" horiz-adv-x="2085" 
d="M2314 2130h307l-2003 -2875h-303l553 811l-262 2064h307l226 -1700z" />
    <glyph glyph-name="c122" unicode="z" horiz-adv-x="1655" 
d="M37 0l69 254l1598 1614h-1126l69 262h1462l-69 -262l-1589 -1606h1232l-69 -262h-1577z" />
    <glyph glyph-name="c123" unicode="{" horiz-adv-x="1298" 
d="M1835 2839l-70 -254h-61q-94 0 -152.5 -23.5t-94.5 -79.5t-64 -160l-189 -704q-71 -268 -179 -404t-304 -206q105 -56 148.5 -137t43.5 -220q0 -123 -36 -258l-189 -704q-24 -90 -24 -135q0 -67 45.5 -95t150.5 -28h62l-70 -254h-180q-144 0 -232 82t-88 217q0 69 33 213
l176 647q49 179 49 282q0 112 -49 171t-160 83l70 267q184 37 280.5 153t166.5 383l176 652q65 240 212 376t349 136h180z" />
    <glyph glyph-name="c124" unicode="|" horiz-adv-x="2585" 
d="M1421 -983v4051h287v-4051h-287z" />
    <glyph glyph-name="c125" unicode="}" horiz-adv-x="1298" 
d="M-106 -823l65 254h61q149 0 215 52.5t105 205.5l188 704q67 251 213 422q101 121 271 189q-104 55 -148.5 136t-44.5 220q0 125 37 258l188 704q25 85 25 136q0 68 -47 95t-158 27h-61l69 259h185q147 0 235 -82.5t88 -221.5q0 -78 -32 -208l-177 -652q-49 -184 -49 -286
q0 -107 47 -166.5t154 -83.5l-70 -267q-177 -36 -272.5 -151.5t-165.5 -384.5l-176 -647q-44 -164 -123.5 -278.5t-191 -174t-246.5 -59.5h-184z" />
    <glyph glyph-name="c126" unicode="~" horiz-adv-x="2359" 
d="M2757 2834l110 -184q-180 -211 -315 -307q-184 -127 -344 -127q-128 0 -426 143l-90 45q-173 82 -271 82q-111 0 -221 -73q-100 -74 -270 -275l-111 184q120 142 186.5 208t153.5 132q163 119 340 119q164 0 451 -151q227 -119 336 -119q200 0 471 323z" />
    <glyph glyph-name="c193" unicode="&#xc1;" horiz-adv-x="2232" 
d="M295 0l770 2875h1532l-70 -262h-1245l-258 -966h389q319 0 475.5 -33t270.5 -123q204 -162 204 -451q0 -196 -88 -385.5t-247 -339.5q-210 -188 -476 -262q-190 -53 -581 -53h-676zM651 262h357q237 0 307 4q179 14 323 82q189 88 307.5 262t118.5 361q0 127 -63.5 220.5
t-177.5 135.5q-90 34 -205.5 45.5t-360.5 11.5h-303z" />
    <glyph glyph-name="c194" unicode="&#xc2;" horiz-adv-x="2232" 
d="M295 0l770 2875h676q235 0 381 -31.5t237 -103.5q193 -143 193 -434q0 -272 -176 -496q-57 -72 -164 -151q-115 -76 -340 -123q199 -25 291 -90q204 -134 204 -410q0 -187 -90 -378.5t-249 -342.5q-210 -188 -476 -262q-190 -53 -581 -53h-676zM651 262h357q237 0 307 4
q179 14 323 82q189 88 307.5 262t118.5 361q0 127 -63.5 220.5t-177.5 135.5q-90 34 -205.5 45.5t-360.5 11.5h-303zM1024 1647h311q226 0 346.5 18.5t223.5 67.5q150 73 251 217.5t101 285.5q0 195 -135 291q-46 35 -131 62q-86 24 -373 24h-336z" />
    <glyph glyph-name="c195" unicode="&#xc3;" horiz-adv-x="1782" 
d="M582 0h-287l770 2875h1458l-69 -262h-1172z" />
    <glyph glyph-name="c196" unicode="&#xc4;" horiz-adv-x="2818" 
d="M123 258h188l1704 2617h320l291 -2617h200l-229 -852h-287l160 594h-2134l-160 -594h-282zM2314 258l-229 2286l-1458 -2286h1687z" />
    <glyph glyph-name="c198" unicode="&#xc6;" horiz-adv-x="3355" 
d="M1532 0l770 2875h287l-770 -2875h-287zM2245 1491l1409 1376h340l-1405 -1368l741 -1499h-344zM1909 1491l-1540 -1491h-344l1544 1499l-672 1368h340z" />
    <glyph glyph-name="c199" unicode="&#xc7;" horiz-adv-x="2130" 
d="M1729 1548q222 -20 339 -94q197 -127 197 -422q0 -272 -176 -520q-99 -154 -291 -311q-166 -131 -343 -192.5t-390 -61.5q-221 0 -391 81.5t-262.5 231t-92.5 342.5q0 101 33 246h299q-28 -86 -28 -156q0 -217 139 -346t373 -129q210 0 400 104.5t306.5 277t116.5 359.5
q0 289 -242 377q-153 58 -524 58h-37l70 262q233 0 354 18.5t223 67.5q163 79 266 235.5t103 321.5q0 178 -114 275.5t-324 97.5q-180 0 -324 -78q-87 -48 -152 -111q-73 -70 -109.5 -127t-82.5 -180h-287q68 169 103 233q60 108 171.5 214.5t233.5 170.5q239 136 529 136
q147 0 269 -39.5t207 -113t132 -181t47 -236.5q0 -131 -55.5 -281.5t-141.5 -254.5q-74 -81 -155 -135q-83 -53 -158.5 -80t-230.5 -60z" />
    <glyph glyph-name="c200" unicode="&#xc8;" horiz-adv-x="2777" 
d="M2482 0h-287l656 2449l-33 -53l-2236 -2396h-287l770 2875h287l-656 -2449l37 53l2233 2396h286z" />
    <glyph glyph-name="c239" unicode="&#xef;" horiz-adv-x="2372" 
d="M246 0l569 2130h270l-86 -332q108 122 205 193q251 184 619 184q326 0 505 -158.5t179 -447.5q0 -153 -78 -447l-299 -1122h-291l303 1122q53 198 53 340q0 209 -126.5 324t-356.5 115q-174 0 -348 -74q-172 -72 -283 -189q-88 -88 -140 -195.5t-110 -320.5l-299 -1122
h-286z" />
    <glyph glyph-name="c233" unicode="&#xe9;" horiz-adv-x="2367" 
d="M2691 2130l-569 -2130h-271l86 332q-104 -119 -204 -193q-243 -184 -619 -184q-326 0 -503 157t-177 445q0 176 74 451l303 1122h287l-303 -1122q-54 -222 -54 -340q0 -203 134 -321t358 -118q168 0 336 70.5t286 192.5q89 84 141 192.5t109 323.5l299 1122h287z
M1352 2871h245q46 -180 299 -180q244 0 394 180h245q-81 -135 -151 -196q-224 -205 -549 -205q-465 0 -483 401z" />
    <glyph glyph-name="c236" unicode="&#xec;" horiz-adv-x="2748" 
d="M217 0l569 2126h447l262 -1655l-4 -102l57 106l1118 1651h435l-570 -2126h-286l495 1847l-1274 -1847h-184l-283 1847l-495 -1847h-287z" />
    <glyph glyph-name="c225" unicode="&#xe1;" horiz-adv-x="2499" 
d="M1249 -49q-256 10 -393 82q-405 199 -405 651q0 131 36 315q93 411 209 730q197 534 533 761q142 104 332.5 166.5t535.5 120.5l357 62q178 33 262 73l-78 -299q-25 -12 -41 -16q-160 -57 -545 -115q-320 -48 -518.5 -125t-333.5 -203q-94 -88 -156 -188
q-85 -143 -130 -251t-156 -429q104 186 182 279.5t199 183.5q322 246 704 246q220 0 397 -91.5t277 -252.5t100 -361q0 -273 -134 -542.5t-365 -460.5q-187 -157 -426 -254q-184 -68 -443 -82zM754 688q29 -207 185.5 -333t383.5 -126q313 0 578 222q180 140 282.5 332
t102.5 388q0 238 -158.5 389.5t-411.5 151.5q-257 0 -481.5 -130.5t-357 -349.5t-132.5 -470q0 -18 9 -74z" />
    <glyph glyph-name="c234" unicode="&#xea;" horiz-adv-x="1954" 
d="M532 0h-286l565 2130h287zM864 1102l1217 1024h336l-1213 -1016l705 -1110h-353z" />
    <glyph glyph-name="c226" unicode="&#xe2;" horiz-adv-x="2257" 
d="M1778 1569q84 -9 209 -41q157 -44 246 -167.5t89 -295.5q0 -207 -82 -410.5t-225 -355.5q-118 -123 -246.5 -199t-280 -110.5t-341.5 -34.5q-234 0 -401 70t-253.5 203.5t-86.5 320.5q0 98 28 221l275 1024q88 320 106 369q61 175 209 352q82 94 217 188
q142 96 284.5 136t338.5 40q635 0 635 -524q0 -236 -152 -459q-81 -107 -168 -176q-81 -64 -162 -94t-239 -57zM1143 1413l61 238h250q207 0 379.5 82.5t271.5 225.5t99 318t-105 266t-305 91q-286 0 -480.5 -154.5t-269.5 -443.5q-36 -122 -65 -242l-274 -1024
q-17 -54 -17 -139q0 -216 134.5 -331.5t389.5 -115.5q215 0 402.5 108.5t298 291.5t110.5 391q0 213 -150 325.5t-435 112.5h-295z" />
    <glyph glyph-name="c227" unicode="&#xe3;" horiz-adv-x="1561" 
d="M1622 627q-79 -297 -314.5 -486.5t-521.5 -189.5q-236 0 -380 130.5t-144 348.5q0 245 139 442q94 128 242.5 214.5t409.5 162.5q141 41 191 61t120 66q74 53 119 137t45 170q0 97 -63 157.5t-167 60.5q-147 0 -252.5 -79t-152.5 -225h-287q84 259 289.5 418.5
t456.5 159.5q208 0 339.5 -122t131.5 -316q0 -156 -81 -306t-222 -255q-74 -59 -167.5 -99t-267.5 -90q-205 -56 -327 -135q-94 -63 -149.5 -164t-55.5 -205q0 -116 79 -187t208 -71q169 0 307 111.5t188 290.5h287z" />
    <glyph glyph-name="c228" unicode="&#xe4;" horiz-adv-x="2617" 
d="M2945 2130l-491 -1827q-52 -206 -119 -360q-97 -226 -340 -430q-198 -162 -446 -253t-484 -91q-244 0 -441.5 106t-304.5 295q-47 83 -65 158.5t-29 222.5h283q62 -208 156 -311q170 -197 483 -197q153 0 301.5 44t278.5 127t227 198q83 103 128.5 202t96.5 289l29 119
q-96 -135 -201 -217q-153 -118 -355 -186t-395 -68q-243 0 -438 103.5t-304 286t-109 413.5q0 264 117.5 521t320 460t460 321.5t523.5 118.5q398 0 610 -238q73 -79 119 -221l110 414h279zM1749 1901q-269 -10 -509.5 -160.5t-385.5 -394t-145 -506.5q0 -185 75.5 -325
t216.5 -215t330 -75q198 0 394.5 89t350 241t243 343t89.5 388q0 176 -81.5 316t-228 219.5t-329.5 79.5h-20z" />
    <glyph glyph-name="c242" unicode="&#xf2;" horiz-adv-x="3650" 
d="M246 0l569 2130h270l-77 -303q164 185 328.5 262.5t396.5 77.5q255 0 390 -105t171 -333q180 236 375.5 337t459.5 101q318 0 489 -152t171 -438q0 -146 -58 -365l-327 -1212h-287l315 1188q54 185 54 307q0 198 -111 302t-323 104q-326 0 -549 -242q-77 -83 -118 -172.5
t-99 -298.5l-316 -1188h-291l328 1217q45 161 45 253q0 185 -125 308t-313 123q-303 0 -533 -230q-79 -76 -125.5 -173t-95.5 -281l-328 -1217h-286z" />
    <glyph glyph-name="c237" unicode="&#xed;" horiz-adv-x="2294" 
d="M860 1221h1229l242 909h290l-569 -2130h-291l258 963h-1228l-259 -963h-286l569 2130h287z" />
    <glyph glyph-name="c184" unicode="&#xb8;" horiz-adv-x="2527" 
d="M1425 2875h287l-131 -491h-287zM2306 2875h291l-135 -491h-287zM2634 979h-1925q-17 -97 -17 -168q0 -248 183 -417t456 -169q359 0 672 238q110 88 221 229h299q-130 -187 -216 -276.5t-230 -190.5q-402 -274 -832 -274q-242 0 -432 103.5t-296.5 290t-106.5 421.5
q0 265 119 518.5t328.5 456.5t469.5 318.5t533 115.5q236 0 428 -103t299.5 -286.5t107.5 -409.5q0 -137 -61 -397zM786 1241h1622q5 37 5 94q0 148 -85.5 279t-229 209t-308.5 78q-200 0 -393.5 -81t-350.5 -229.5t-260 -349.5z" />
    <glyph glyph-name="c243" unicode="&#xf3;" horiz-adv-x="2085" 
d="M2314 2130h307l-2003 -2875h-303l553 811l-262 2064h307l226 -1700z" />
    <glyph glyph-name="c247" unicode="&#xf7;" horiz-adv-x="2028" 
d="M2355 2130l-573 -2130h-287l262 979q-96 -121 -188 -188q-227 -156 -479 -156q-171 0 -294 59.5t-187 173.5t-64 275q0 172 90 508l127 479h291l-131 -479q-78 -286 -78 -447q0 -327 352 -327q113 0 235.5 46.5t219.5 125.5q164 134 229 393l184 688h291z" />
    <glyph glyph-name="c244" unicode="&#xf4;" horiz-adv-x="2830" 
d="M2322 2875l-192 -712q254 -5 405 -70q141 -62 245 -169t159 -246t55 -298q0 -201 -66.5 -402.5t-192 -377.5t-302.5 -317q-136 -107 -272 -174.5t-287 -100.5t-330 -37l-192 -716h-271l193 716q-158 3 -228 15.5t-186 54.5q-206 77 -332.5 270t-126.5 430q0 371 198 696
t535.5 521t725.5 205l192 712h270zM1790 1901q-216 -21 -366 -75t-285 -159q-188 -148 -311 -381t-123 -446q0 -218 114 -373q87 -117 205 -173t315 -73zM2060 1901l-450 -1680q298 23 547 173t391.5 385.5t142.5 502.5q0 195 -65.5 323.5t-205.5 201t-360 94.5z" />
    <glyph glyph-name="c246" unicode="&#xf6;" horiz-adv-x="2523" 
d="M2691 2130l-524 -1962h205l-177 -660h-274l131 492h-168l98 377q-155 -172 -249 -238q-239 -184 -619 -184q-326 0 -503 157t-177 445q0 176 74 451l303 1122h287l-303 -1122q-54 -222 -54 -340q0 -203 134 -321t358 -118q168 0 336 70.5t286 192.5q89 84 141 192.5
t109 323.5l299 1122h287z" />
    <glyph glyph-name="c230" unicode="&#xe6;" horiz-adv-x="2941" 
d="M2187 2130l-573 -2130h-287l574 2130h286zM1921 1102l1163 1028h340l-1163 -1020l655 -1110h-352zM1610 1102l-1233 -1102h-352l1249 1110l-619 1020h340z" />
    <glyph glyph-name="c248" unicode="&#xf8;" horiz-adv-x="3650" 
d="M3973 2130l-569 -2130h-271l78 299q-161 -184 -327.5 -262t-393.5 -78q-257 0 -391.5 105.5t-169.5 332.5q-125 -157 -250 -252.5t-268.5 -140.5t-320.5 -45q-317 0 -488.5 154t-171.5 436q0 138 62 364l323 1217h287l-316 -1188q-53 -187 -53 -307q0 -197 112.5 -301.5
t325.5 -104.5q329 0 545 242q81 87 122.5 177.5t94.5 293.5l320 1188h287l-328 -1221q-45 -161 -45 -250q0 -187 124 -308.5t314 -121.5q144 0 286 60.5t247 165.5q80 80 125.5 175t95.5 279l327 1221h287z" />
    <glyph glyph-name="c250" unicode="&#xfa;" horiz-adv-x="1974" 
d="M1049 1327h348q340 0 483 -70q91 -44 152 -147.5t61 -216.5q0 -135 -40 -265t-115 -242t-181 -198q-133 -104 -290.5 -146t-426.5 -42h-630l499 1868h-385l70 262h668zM979 1069l-217 -811h258h70q94 4 188 4q201 6 336 135q176 164 176 410q0 169 -160 233
q-56 20 -105 24.5t-218 4.5h-70h-258z" />
    <glyph glyph-name="c249" unicode="&#xf9;" horiz-adv-x="3805" 
d="M3334 0h-168l90 340l-43.5 -43.5l-38.5 -38.5q-24 -24 -147 -135q-213 -164 -541 -164q-254 0 -388 105.5t-169 332.5q-125 -157 -250 -252.5t-268.5 -140.5t-320.5 -45q-317 0 -488.5 154t-171.5 436q0 138 62 364l323 1217h287l-316 -1188q-53 -187 -53 -307
q0 -197 112.5 -301.5t325.5 -104.5q329 0 545 242q81 87 122.5 177.5t94.5 293.5l320 1188h287l-328 -1221q-45 -161 -45 -250q0 -187 124 -308.5t314 -121.5q144 0 286 60.5t247 165.5q80 80 125.5 175t95.5 279l327 1221h287l-516 -1933h205l-184 -689h-275z" />
    <glyph glyph-name="c231" unicode="&#xe7;" horiz-adv-x="1745" 
d="M1450 1139q169 -43 233 -127q82 -100 82 -246q0 -224 -172 -451q-122 -155 -303 -254q-111 -58 -199.5 -78t-234.5 -20q-149 0 -225 20t-156 78q-188 147 -188 385q0 63 24 152h287q-12 -67 -12 -115q0 -122 94 -198t246 -76q139 0 264.5 69t200.5 184t75 243
q0 85 -46 152t-128 104.5t-186 37.5q-78 0 -131 -8l65 254q82 -8 99 -8q122 0 234 60.5t178.5 162t66.5 215.5q0 111 -74.5 174.5t-204.5 63.5q-110 0 -200 -53q-47 -24 -99 -70q-71 -67 -122 -197h-287q48 138 89.5 203t127.5 146q244 225 586 225q143 0 252 -51.5
t168 -146.5t59 -220q0 -143 -78 -299q-57 -109 -135.5 -172.5t-249.5 -138.5z" />
    <glyph glyph-name="c235" unicode="&#xeb;" horiz-adv-x="1884" 
d="M1675 2167l209 -2167h-307l-168 1745l-1098 -1745h-311l1372 2167h303z" />
    <glyph glyph-name="c252" unicode="&#xfc;" horiz-adv-x="1786" 
d="M217 0l569 2126l287 4l-213 -803h348q334 0 484 -70q91 -44 152 -147.5t61 -216.5q0 -135 -40 -265t-115 -242t-181 -198q-132 -104 -291.5 -146t-425.5 -42h-635zM791 1069l-218 -811h258h70q94 4 189 4q194 6 335 135q172 159 172 410q0 171 -155 233q-86 29 -324 29
h-69h-258z" />
    <glyph glyph-name="c255" unicode="&#xff;" horiz-adv-x="1913" 
d="M61 0l1069 905q-241 6 -368 114t-127 304q0 173 84 337.5t231 276.5q130 103 294.5 146t426.5 43h602l-569 -2126h-291l508 1896h-246q-8 0 -188 -8q-158 -6 -239.5 -33.5t-157.5 -97.5t-122 -178.5t-46 -214.5q0 -143 114 -217q76 -54 172.5 -74t290.5 -20h139
l-1192 -1053h-385z" />
    <glyph glyph-name="c254" unicode="&#xfe;" horiz-adv-x="3224" 
d="M1176 1221q51 145 186 320t301 310q124 99 271.5 172.5t302 112.5t294.5 39q182 0 340.5 -61t272.5 -173t176.5 -265t62.5 -333q0 -349 -237 -696q-146 -213 -342.5 -369.5t-422 -241.5t-444.5 -85q-246 0 -441 103t-305 288.5t-110 419.5q0 72 17 201h-307l-259 -963
h-286l569 2130h287l-242 -909h316zM2462 1901q-280 -10 -530.5 -162.5t-403 -395.5t-152.5 -507q0 -176 80.5 -315.5t226.5 -217.5t328 -78q202 0 395 88.5t348.5 244t244.5 350t89 395.5q0 164 -81 301.5t-223 217t-310 79.5h-12z" />
    <glyph glyph-name="c232" unicode="&#xe8;" horiz-adv-x="2367" 
d="M2691 2130l-569 -2130h-271l86 332q-104 -119 -204 -193q-243 -184 -619 -184q-326 0 -503 157t-177 445q0 176 74 451l303 1122h287l-303 -1122q-54 -222 -54 -340q0 -203 134 -321t358 -118q168 0 336 70.5t286 192.5q89 84 141 192.5t109 323.5l299 1122h287z" />
    <glyph glyph-name="c176" unicode="&#xb0;" horiz-adv-x="1556" 
d="M1950 2302q0 -163 -77 -299.5t-210.5 -215.5t-294.5 -79q-158 0 -293.5 78.5t-214 214t-78.5 293.5q0 157 79 291.5t213.5 212t293.5 77.5q153 0 287.5 -79t214.5 -212t80 -282zM1794 2286q0 181 -124 307.5t-306 126.5q-115 0 -213.5 -58t-155.5 -156t-57 -212
q0 -180 126 -305t304 -125q172 0 299 125t127 297z" />
    <glyph glyph-name="c162" unicode="&#xa2;" 
d="M1077 242l90 344q-190 27 -282 78q-159 86 -249.5 245t-90.5 357q0 266 148 509.5t402.5 405.5t555.5 199l94 364h258l-98 -364q171 -30 278 -94q119 -78 197 -209q60 -101 82 -279h-324q-39 104 -82 152q-136 155 -381 155q-207 0 -399.5 -109.5t-312 -288
t-119.5 -368.5q0 -207 138 -341t353 -134q155 0 312 66q130 56 303 196h311q-105 -151 -201 -233q-124 -113 -303 -205q-126 -61 -332 -102l-94 -344h-254z" />
    <glyph glyph-name="c163" unicode="&#xa3;" horiz-adv-x="2970" 
d="M483 0l70 262h541q145 118 228 283t83 332q0 112 -45 221q-44 93 -184 250h-488l70 258h286q-12 77 -12 155q0 252 164 512q93 147 217 269.5t262.5 205.5t288 127.5t301.5 44.5q197 0 364 -88t264 -240.5t97 -334.5q0 -57 -12 -156h-275l4 29q0 149 -64 267t-179 183.5
t-264 65.5q-219 0 -424.5 -123.5t-331 -323t-125.5 -413.5q0 -89 41 -180h1106l-74 -258h-831q54 -97 61 -111q74 -148 74 -328q0 -291 -262 -647h98q322 0 438 33q142 40 263 135t192 225q43 78 74.5 184t31.5 177v24h279q-3 -170 -51.5 -304.5t-153.5 -272.5
q-126 -170 -307 -283q-151 -99 -316.5 -139.5t-429.5 -40.5h-1069z" />
    <glyph glyph-name="c167" unicode="&#xa7;" horiz-adv-x="2392" 
d="M2507 2359h-271q0 11 2.5 28.5t2.5 33.5q0 98 -97.5 161.5t-247.5 63.5q-203 0 -349 -131t-146 -315q0 -77 44.5 -135t147.5 -119l426 -246q203 -118 282 -214.5t79 -228.5q0 -178 -134.5 -370t-349.5 -314q107 -129 107 -286q0 -206 -133.5 -398.5t-353 -311
t-455.5 -118.5q-179 0 -318.5 73t-215.5 205t-76 304q0 66 24 213h275q-17 -80 -17 -139q0 -182 108 -281.5t306 -99.5q148 0 279.5 67.5t210.5 180t79 239.5q0 70 -37 131q-52 78 -262 205l-545 328q-196 117 -196 307q0 140 78 283q41 83 90 143q71 88 144 149t204 142
q-70 108 -70 245q0 145 69 282t191.5 248t274 173.5t309.5 62.5q149 0 277 -56.5t202 -154t74 -215.5q0 -54 -12 -135zM1323 1765q-155 -85 -253.5 -219t-98.5 -260q0 -136 176 -237l598 -340q152 83 246 212.5t94 254.5q0 84 -44.5 140.5t-168.5 125.5z" />
    <glyph glyph-name="c149" unicode="&#x2022;" horiz-adv-x="2359" 
d="M2187 1180q0 -199 -96 -366.5t-263.5 -265t-365.5 -97.5q-193 0 -359 96.5t-262 261.5t-96 358q0 198 96 364.5t262 263.5t359 97q192 0 359.5 -97.5t266.5 -262.5t99 -352z" />
    <glyph glyph-name="c182" unicode="&#xb6;" horiz-adv-x="2195" 
d="M758 -496l504 1876q-175 12 -258 54q-146 67 -231 203.5t-85 304.5q0 158 78.5 329t216.5 309q172 166 365 238q157 57 434 57h897l-901 -3371h-287l831 3109h-442l-836 -3109h-286z" />
    <glyph glyph-name="c174" unicode="&#xae;" horiz-adv-x="4116" 
d="M2384 -111q-400 0 -743.5 200t-543.5 543.5t-200 743.5q0 402 199.5 744.5t542.5 542.5t745 200q304 0 575 -115t476.5 -320t320.5 -477.5t115 -574.5q0 -400 -200 -743.5t-543.5 -543.5t-743.5 -200zM2384 131q331 0 611 167t444.5 453.5t164.5 624.5q0 337 -164 624
t-444 454t-612 167t-612.5 -167t-444.5 -454t-164 -624q0 -334 164.5 -621.5t445.5 -455.5t611 -168zM1851 569v1639h426q322 0 467 -78q119 -68 186.5 -188.5t67.5 -262.5q0 -209 -130.5 -343.5t-352.5 -155.5l459 -611h-258l-553 742h49h205q144 0 256 109.5t112 250.5
q0 169 -136.5 271t-362.5 102h-205v-1475h-230z" />
    <glyph glyph-name="c169" unicode="&#xa9;" horiz-adv-x="4116" 
d="M2367 -127q-400 0 -743 200t-543 543.5t-200 743.5q0 402 199.5 744.5t542 542.5t744.5 200q403 0 745 -199.5t542 -542.5t200 -745q0 -400 -200 -743.5t-543 -543.5t-744 -200zM2367 115q247 0 470.5 96.5t392.5 268.5t263.5 399t94.5 481q0 337 -164 624t-444.5 454
t-612.5 167t-612 -167t-444 -454t-164 -624q0 -334 164.5 -621.5t445.5 -455.5t610 -168zM2966 1004h253q-89 -180 -204 -295q-260 -242 -623 -242q-254 0 -468.5 118t-338 321.5t-123.5 449.5q0 241 123.5 445.5t336 324t462.5 119.5q387 0 668 -279q90 -96 172 -274h-258
q-83 121 -148 172q-190 159 -438 159q-187 0 -345.5 -88t-250.5 -240t-92 -335q0 -188 90.5 -343t249.5 -244t348 -89q160 0 315 74q84 45 139 94.5t132 151.5z" />
    <glyph glyph-name="c180" unicode="&#xb4;" horiz-adv-x="1458" 
d="M987 2605l864 451l78 -226l-868 -446z" />
    <glyph glyph-name="c221" unicode="&#xdd;" horiz-adv-x="3162" 
d="M3064 1352h-1766l70 258h1757q8 61 8 131q0 254 -118.5 461.5t-327.5 325.5t-467 118q-442 0 -844 -258q-132 -84 -303 -250h-319q20 26 46 59.5t36 47.5q120 135 319 282q541 393 1131 393q254 0 464.5 -77.5t365 -223.5t238 -347.5t83.5 -444.5q0 -353 -161 -690
t-443.5 -607.5t-637.5 -424.5t-725 -154q-265 0 -493.5 99.5t-390.5 285.5q-76 86 -116.5 166t-96.5 248h319q88 -161 155.5 -237t192.5 -153q232 -135 496 -135q310 0 626 151.5t558 410.5t344 565z" />
    <glyph glyph-name="c219" unicode="&#xdb;" horiz-adv-x="3117" 
d="M295 0l770 2875h287l-328 -1228h389q319 0 475.5 -33t270.5 -123q204 -162 204 -451q0 -196 -88 -385.5t-247 -339.5q-210 -188 -476 -262q-190 -53 -581 -53h-676zM2535 0l770 2875h287l-770 -2875h-287zM651 262h357q237 0 307 4q179 14 323 82q189 88 307.5 262
t118.5 361q0 127 -63.5 220.5t-177.5 135.5q-90 34 -205.5 45.5t-360.5 11.5h-303z" />
    <glyph glyph-name="c177" unicode="&#xb1;" horiz-adv-x="2359" 
d="M1237 1524v630h295v-630h831v-295h-831v-639h-295v639h-836v295h836zM401 0v295h1962v-295h-1962z" />
    <glyph glyph-name="c178" unicode="&#xb2;" horiz-adv-x="2396" 
d="M344 0v225h2036v-225h-2036zM344 1421v254l2036 942v-254l-1774 -815l1774 -815v-254z" />
    <glyph glyph-name="c179" unicode="&#xb3;" horiz-adv-x="2560" 
d="M2564 225v-225h-2036v225h2036zM2564 1675v-254l-2036 -942v254l1774 815l-1774 815v254z" />
    <glyph glyph-name="c165" unicode="&#xa5;" 
d="M1008 0l245 922h-798l61 241h692l-98 377h-520l65 242h394l-279 1093h315l410 -1613l1253 1613h316l-860 -1093h385l-62 -242h-516l-291 -377h676l-65 -241h-787l-250 -922h-286z" />
    <glyph glyph-name="c253" unicode="&#xfd;" horiz-adv-x="2519" 
d="M2392 1221v57q0 179 -83.5 321.5t-235 222t-340.5 79.5q-311 0 -607 -201q-109 -75 -241 -217h-324q152 215 307 344q208 167 451.5 257.5t478.5 90.5q256 0 459 -106t316.5 -295.5t113.5 -425.5q0 -266 -122.5 -519t-337 -451t-487.5 -312.5t-560 -114.5
q-439 0 -684 303q-103 130 -164 369h319q67 -128 120 -192t138 -116q156 -90 373 -90q330 0 624.5 207.5t420.5 530.5h-1246l70 258h1241z" />
    <glyph glyph-name="c251" unicode="&#xfb;" horiz-adv-x="2523" 
d="M217 0l569 2126l287 4l-213 -803h348q334 0 484 -70q91 -44 152 -147.5t61 -216.5q0 -135 -40 -265t-115 -242t-181 -198q-132 -104 -291.5 -146t-425.5 -42h-635zM1991 0l569 2130h287l-570 -2130h-286zM791 1069l-218 -811h258h70q94 4 189 4q194 6 335 135
q172 159 172 410q0 171 -155 233q-86 29 -324 29h-69h-258z" />
    <glyph glyph-name="c172" unicode="&#xac;" horiz-adv-x="2359" 
d="M2036 647l205 754h-1668l78 295h1962l-282 -1049h-295z" />
    <glyph glyph-name="c171" unicode="&#xab;" horiz-adv-x="1655" 
d="M700 393l-229 778l643 775l197 -119l-541 -656l188 -655zM1372 393l-229 778l647 775l197 -119l-541 -656l188 -655z" />
    <glyph glyph-name="c187" unicode="&#xbb;" horiz-adv-x="1655" 
d="M1163 393l-196 123l540 655l-188 656l258 119l233 -775zM487 393l-192 123l541 655l-193 656l258 119l234 -775z" />
    <glyph glyph-name="c160" unicode="&#xa0;" horiz-adv-x="1024" 
 />
    <glyph glyph-name="c201" unicode="&#xc9;" horiz-adv-x="2777" 
d="M1634 3240h246q50 -180 299 -180q246 0 393 180h246q-65 -114 -152 -201q-225 -200 -548 -200q-464 0 -484 401zM2482 0h-287l656 2449l-33 -53l-2236 -2396h-287l770 2875h287l-656 -2449l37 53l2233 2396h286z" />
    <glyph glyph-name="c202" unicode="&#xca;" horiz-adv-x="2327" 
d="M995 1491l1639 1384h356l-1622 -1376l934 -1499h-369zM1352 2875l-770 -2875h-287l770 2875h287z" />
    <glyph glyph-name="c203" unicode="&#xcb;" horiz-adv-x="2593" 
d="M1962 2572l-1610 -2572h-311l1855 2875h320l336 -2875h-348z" />
    <glyph glyph-name="c173" unicode="&#xad;" horiz-adv-x="2048" 
d="M328 1339h2048v-258h-2048v258z" />
    <glyph glyph-name="c166" unicode="&#xa6;" horiz-adv-x="4096" 
d="M319 1323h4096v-258h-4096v258z" />
    <glyph glyph-name="c147" unicode="&#x201c;" horiz-adv-x="1954" 
d="M279 -262l540 754h287l-541 -754h-286zM852 -262l545 754h282l-540 -754h-287z" />
    <glyph glyph-name="c148" unicode="&#x201d;" horiz-adv-x="1884" 
d="M909 2126l525 749h290l-544 -749h-271zM1466 2126l545 749h287l-541 -749h-291z" />
    <glyph glyph-name="c145" unicode="&#x2018;" horiz-adv-x="1364" 
d="M1581 2126h-287l-143 749h287z" />
    <glyph glyph-name="c146" unicode="&#x2019;" horiz-adv-x="1364" 
d="M922 2126l544 749h287l-541 -749h-290z" />
    <glyph glyph-name="c186" unicode="&#xba;" horiz-adv-x="2367" 
d="M2691 2130l-569 -2130h-271l86 332q-104 -119 -204 -193q-243 -184 -619 -184q-326 0 -503 157t-177 445q0 176 74 451l303 1122h287l-303 -1122q-54 -222 -54 -340q0 -203 134 -321t358 -118q168 0 336 70.5t286 192.5q89 84 141 192.5t109 323.5l299 1122h287z
M1581 2978l660 -422l-189 -225l-659 413z" />
    <glyph glyph-name="c170" unicode="&#xaa;" horiz-adv-x="2777" 
d="M2482 0h-287l656 2449l-33 -53l-2236 -2396h-287l770 2875h287l-656 -2449l37 53l2233 2396h286zM1937 3400l660 -422l-189 -225l-659 413z" />
    <glyph glyph-name="c164" unicode="&#xa4;" 
d="M233 426l213 164q-69 186 -69 328q0 185 94 421q41 87 70 140q81 133 217 274l-123 168l258 209l127 -168q174 101 303 139q165 49 340 49q150 0 266 -41q119 -39 258 -147l217 168l148 -209l-213 -168q65 -166 65 -315q0 -217 -90 -426q-12 -31 -57 -123
q-73 -121 -229 -299l122 -164l-258 -205l-127 168q-177 -102 -323 -147q-165 -49 -328 -49q-121 0 -258 40q-116 41 -258 156l-217 -168zM1196 475q172 0 338 73.5t297.5 201t207 286.5t75.5 324q0 152 -65.5 268.5t-185.5 180t-274 63.5q-235 0 -449 -124.5t-343 -331.5
t-129 -437q0 -215 151 -359.5t377 -144.5z" />
    <glyph glyph-name="c185" unicode="&#xb9;" horiz-adv-x="4321" 
d="M295 0l770 2875h389l959 -2351l8 -61l643 2412h291l-770 -2875h-291l-1024 2511v45l-688 -2556h-287zM4137 2257q158 0 276.5 -61t183 -175.5t64.5 -263.5q0 -223 -143 -434q-131 -192 -335.5 -309t-410.5 -117q-221 0 -366.5 146.5t-145.5 365.5q0 213 125.5 409.5
t330 317.5t421.5 121zM3191 406h1052l-69 -263h-1053zM4084 1982q-219 0 -378 -151t-159 -356q0 -131 85.5 -217.5t217.5 -86.5q161 0 307 115q104 83 163 192t59 222q0 123 -82.5 202.5t-212.5 79.5z" />
    <glyph glyph-name="c183" unicode="&#xb7;" horiz-adv-x="1954" 
d="M2150 2126h-290l-140 749h287zM1573 2126h-287l-143 749h287z" />
    <glyph glyph-name="c204" unicode="&#xcc;" horiz-adv-x="3576" 
d="M1892 426l-4 -102l54 102l1667 2449h442l-770 -2875h-291l688 2556l-1769 -2556h-246l-393 2556l-688 -2556h-287l770 2875h442z" />
    <glyph glyph-name="c205" unicode="&#xcd;" horiz-adv-x="2658" 
d="M295 0l770 2875h287l-336 -1265h1491l336 1265h290l-770 -2875h-290l364 1352h-1491l-364 -1352h-287z" />
    <glyph glyph-name="c207" unicode="&#xcf;" horiz-adv-x="2658" 
d="M295 0l770 2875h2068l-770 -2875h-290l700 2613h-1491l-700 -2613h-287z" />
    <glyph glyph-name="c168" unicode="&#xa8;" horiz-adv-x="2085" 
d="M295 0l770 2875h1573l-70 -262h-1286l-270 -1007h1241l-70 -263h-1241l-291 -1081h1286l-69 -262h-1573zM1614 3535h291l-131 -492h-291zM2187 3535h287l-131 -492h-287z" />
    <glyph glyph-name="c210" unicode="&#xd2;" horiz-adv-x="1659" 
d="M688 0l701 2613h-660l70 262h1601l-69 -262h-656l-700 -2613h-287z" />
    <glyph glyph-name="c211" unicode="&#xd3;" horiz-adv-x="2302" 
d="M647 0l598 811l-467 2064h344l373 -1732l1258 1732h311l-2097 -2875h-320z" />
    <glyph glyph-name="c212" unicode="&#xd4;" horiz-adv-x="3330" 
d="M2621 3101l-65 -250q238 -15 430.5 -93.5t330 -212t210.5 -312.5t73 -394q0 -336 -144 -657t-397 -576.5t-580 -411.5t-681 -178l-74 -262h-286l69 262q-231 24 -418 107t-317.5 214.5t-201 308.5t-70.5 386q0 450 235.5 849.5t642 659.5t891.5 310l66 250h286zM1573 262
l631 2347q-368 -38 -692.5 -260.5t-518.5 -557t-194 -689.5q0 -672 774 -840zM2490 2609l-630 -2355q398 55 729 274t521.5 549t190.5 697q0 294 -135 479q-116 152 -352 270q-139 71 -324 86z" />
    <glyph glyph-name="c214" unicode="&#xd6;" horiz-adv-x="2761" 
d="M2277 0h-1982l770 2875h287l-701 -2613h1491l701 2613h290l-704 -2617h201l-230 -852h-282z" />
    <glyph glyph-name="c215" unicode="&#xd7;" horiz-adv-x="2548" 
d="M2253 0h-287l373 1393q-114 -157 -248 -259t-296.5 -151t-356.5 -49q-318 0 -503 158.5t-185 431.5q0 170 81 483l234 868h287l-254 -946q-41 -161 -41 -287q0 -135 60 -232t173 -147.5t271 -50.5q297 0 520 160q167 117 271.5 290t178.5 452l205 761h287z" />
    <glyph glyph-name="c216" unicode="&#xd8;" horiz-adv-x="3658" 
d="M3363 0h-3068l770 2875h287l-701 -2613h1102l701 2613h290l-700 -2613h1098l700 2613h291z" />
    <glyph glyph-name="c217" unicode="&#xd9;" horiz-adv-x="3744" 
d="M3277 0h-2982l770 2875h287l-701 -2613h1102l701 2613h290l-700 -2613h1098l700 2613h291l-701 -2617h197l-225 -852h-287z" />
    <glyph glyph-name="c218" unicode="&#xda;" horiz-adv-x="2454" 
d="M831 2875h742l-328 -1228h389q319 0 475.5 -33t270.5 -123q205 -162 205 -451q0 -193 -87.5 -383t-248.5 -342q-208 -188 -475 -262q-191 -53 -582 -53h-676l701 2613h-455zM872 262h357q237 0 307 4q181 14 324 82q187 87 306.5 261t119.5 362q0 125 -64.5 219.5
t-177.5 136.5q-90 34 -206 45.5t-359 11.5h-303z" />
    <glyph glyph-name="c220" unicode="&#xdc;" horiz-adv-x="2232" 
d="M295 0l770 2875h287l-328 -1228h389q319 0 475.5 -33t270.5 -123q204 -162 204 -451q0 -196 -88 -385.5t-247 -339.5q-210 -188 -476 -262q-190 -53 -581 -53h-676zM651 262h357q237 0 307 4q179 14 323 82q189 88 307.5 262t118.5 361q0 127 -63.5 220.5t-177.5 135.5
q-90 34 -205.5 45.5t-360.5 11.5h-303z" />
    <glyph glyph-name="c222" unicode="&#xde;" horiz-adv-x="4186" 
d="M1413 1610q129 354 425.5 656.5t678 478t756.5 175.5q257 0 472.5 -80t375 -229t245.5 -353t86 -443q0 -477 -315 -938q-147 -213 -336.5 -383.5t-409.5 -292t-456.5 -186t-468.5 -64.5q-321 0 -587 141.5t-419 386.5t-153 541q0 152 36 332h-397l-364 -1352h-287
l770 2875h287l-336 -1265h397zM3207 2646v4q-176 -12 -254 -24q-387 -75 -729 -349q-143 -113 -257.5 -249.5t-196 -288.5t-123 -307.5t-41.5 -305.5q0 -255 121.5 -462t337 -323t483.5 -116q299 0 588.5 126.5t519.5 345t363.5 493.5t133.5 559q0 298 -163 528
q-134 177 -340 275q-99 46 -188.5 65.5t-254.5 28.5z" />
    <glyph glyph-name="c223" unicode="&#xdf;" horiz-adv-x="2458" 
d="M2933 2875l-770 -2875h-291l700 2613h-368q-50 0 -95 4h-57q-81 0 -205 -8q-270 -12 -450 -168q-105 -88 -175.5 -245t-70.5 -300q0 -86 42 -170t110 -137q81 -62 192 -94q137 -37 516 -37h111l-1622 -1458h-385l1446 1262q-28 0 -56 -2.5t-39 -2.5q-280 0 -455 156
t-175 406q0 209 87 409.5t244 351.5q176 167 395.5 231t612.5 64h758z" />
    <glyph glyph-name="c191" unicode="&#xbf;" horiz-adv-x="1954" 
d="M1057 2875h360l258 -286l414 286h348l-684 -491h-262z" />
  </font>
</defs>
</svg>
